<svg data-name="icon_basket empty/50" xmlns="http://www.w3.org/2000/svg" width="50" height="50" viewBox="0 0 50 50">
    <defs>
        <clipPath id="okn14v15ma">
            <path data-name="사각형 6196" style="fill:none" d="M0 0h50v50H0z"/>
        </clipPath>
    </defs>
    <g data-name="그룹 13183" style="clip-path:url(#okn14v15ma)">
        <g data-name="그룹 13182">
            <g data-name="그룹 13181" style="clip-path:url(#okn14v15ma)">
                <path data-name="패스 31026" d="M20.92 47.477a3 3 0 1 1 3-3 3 3 0 0 1-3 3" style="fill:#444"/>
                <path data-name="패스 31027" d="M36.453 47.477a3 3 0 1 1 3-3 3 3 0 0 1-3 3" style="fill:#444"/>
                <path data-name="패스 31028" d="M43 35.414H16.483a2.312 2.312 0 0 1-2.241-1.955L9.77 9.152h38.1a1.436 1.436 0 0 1 1.364 1.721l-3.989 22.586A2.311 2.311 0 0 1 43 35.414" style="fill:#f70"/>
                <path data-name="패스 31029" d="M29.6 17.057a1.354 1.354 0 0 0-1.35 1.353v7.747a1.354 1.354 0 0 0 2.707 0V18.41a1.353 1.353 0 0 0-1.357-1.353" style="fill:#ffdcbf"/>
                <path data-name="패스 31030" d="M38.213 17.057a1.354 1.354 0 0 0-1.354 1.353v7.747a1.357 1.357 0 0 0 1.353 1.352 1.357 1.357 0 0 0 1.354-1.353V18.41a1.354 1.354 0 0 0-1.353-1.353" style="fill:#ffdcbf"/>
                <path data-name="패스 31031" d="M20.994 17.057a1.354 1.354 0 0 0-1.354 1.353v7.747a1.357 1.357 0 0 0 1.353 1.352 1.357 1.357 0 0 0 1.354-1.353V18.41a1.354 1.354 0 0 0-1.353-1.353" style="fill:#ffdcbf"/>
                <path data-name="패스 31032" d="M41.734 41.732H17.215a5.209 5.209 0 0 1-5.1-4.2l-5.9-31.7H1.818a1.5 1.5 0 0 1 0-3h5.639a1.5 1.5 0 0 1 1.474 1.227l6.129 32.909a2.2 2.2 0 0 0 2.155 1.764h24.519a1.5 1.5 0 0 1 0 3" style="fill:#222"/>
            </g>
        </g>
    </g>
</svg>
