<svg xmlns="http://www.w3.org/2000/svg" width="46.001" height="46" viewBox="0 0 46.001 46">
    <g data-name="icon_food default/ 46">
        <path data-name="사각형 6074" style="fill:none" d="M0 0h46v46H0z"/>
        <g data-name="그룹 12970">
            <path data-name="패스 23381" d="M1542.156 553.279c-.7-1.647-1.716-2.553-2.875-2.551-1.131 0-2.142.906-2.844 2.552a12.76 12.76 0 0 0-.919 4.848 6.279 6.279 0 0 0 1.141 3.912 3.6 3.6 0 0 0 1.62 1.2l-.949 19.587a1.319 1.319 0 0 0 1.245 1.392h1.51a1.321 1.321 0 0 0 1.32-1.323v-.072l-.978-19.64a3.619 3.619 0 0 0 1.477-1.141 6.284 6.284 0 0 0 1.141-3.912 12.917 12.917 0 0 0-.9-4.842z" style="fill:#b7b7b7" transform="translate(-1497.051 -543.963)"/>
            <path data-name="패스 28461" d="m1504.133 550.647.316 5.862v2.89a1.989 1.989 0 0 1-.63 1.453l-1.33 1.245a2.118 2.118 0 0 0-.667 1.656l.954 18.422v.073a1.321 1.321 0 0 1-1.317 1.327h-1.506a1.321 1.321 0 0 1-1.251-1.387l.85-18.476a2.122 2.122 0 0 0-.628-1.6l-1.277-1.26a1.994 1.994 0 0 1-.592-1.417v-2.921l.324-5.864a.731.731 0 0 1 .73-.682.732.732 0 0 1 .73.78l-.223 5.75a.463.463 0 0 0 .464.464h.48a.463.463 0 0 0 .464-.464v-5.8a.731.731 0 0 1 .732-.731.731.731 0 0 1 .732.731v5.8a.463.463 0 0 0 .464.464h.476a.464.464 0 0 0 .464-.464l-.219-5.75a.732.732 0 0 1 .73-.78.73.73 0 0 1 .73.679z" style="fill:#b7b7b7" transform="translate(-1497.051 -543.963)"/>
            <path data-name="패스 30601" d="M1532.148 563.861a4.364 4.364 0 0 1-4.074-2.807 4.981 4.981 0 0 1-7.266-4.431 5.071 5.071 0 0 1 .043-.619 4.179 4.179 0 0 1-3.173-3.87 15.318 15.318 0 1 0 17 10.912 4.336 4.336 0 0 1-2.53.815z" style="fill:#b7b7b7" transform="translate(-1497.051 -543.963)"/>
            <path data-name="패스 30602" d="M1511.305 567.335a8.675 8.675 0 1 0 15.138-5.771 4.932 4.932 0 0 1-5.129-2.79 8.617 8.617 0 0 0-10.009 8.561z" style="fill:#aaa" transform="translate(-1497.051 -543.963)"/>
        </g>
    </g>
</svg>
