<svg xmlns="http://www.w3.org/2000/svg" width="15" height="15" viewBox="0 0 15 15">
    <path data-name="사각형 3595" style="fill:none" d="M0 0h13v13H0z"/>
    <g data-name="그룹 11926">
        <path data-name="패스 30322" d="M6.1.677a.442.442 0 0 1 .591-.2.434.434 0 0 1 .205.2l1.49 3.105a.445.445 0 0 0 .343.249l3.455.428a.443.443 0 0 1 .385.493.438.438 0 0 1-.139.272L9.9 7.551a.442.442 0 0 0-.133.41l.654 3.35a.443.443 0 0 1-.644.474l-3.066-1.658a.441.441 0 0 0-.42 0l-3.068 1.658a.444.444 0 0 1-.644-.474l.654-3.35a.444.444 0 0 0-.133-.41L.571 5.224a.441.441 0 0 1 .245-.764l3.454-.429a.444.444 0 0 0 .343-.248z" transform="translate(0 .393)" style="fill:#f4f5f9"/>
        <path data-name="패스 30323" d="M3.014 12.266a.882.882 0 0 1-.253-.038.872.872 0 0 1-.6-1l.654-3.351L.28 5.539a.871.871 0 0 1 .481-1.505l3.456-.428L5.717.49a.871.871 0 0 1 1.568 0L8.773 3.6l3.463.437a.87.87 0 0 1 .757.963.861.861 0 0 1-.276.536l-2.526 2.33.652 3.362a.874.874 0 0 1-.693 1.022.9.9 0 0 1-.574-.087L6.508 10.5l-3.082 1.661a.873.873 0 0 1-.412.1M6.5 9.645a.879.879 0 0 1 .415.1l3.066 1.658-.635-3.361a.881.881 0 0 1 .263-.806l2.529-2.328-3.463-.453A.868.868 0 0 1 8 3.965L6.512.861h-.023L5 3.967a.869.869 0 0 1-.674.489l-3.458.428L3.39 7.235a.869.869 0 0 1 .262.809L3 11.392 6.087 9.75a.865.865 0 0 1 .413-.1" transform="translate(0 .393)" style="fill:#e6e6e6"/>
    </g>
</svg>
