<svg xmlns="http://www.w3.org/2000/svg" width="46" height="18" viewBox="0 0 46 18">
    <defs>
        <clipPath id="aifp11a6ha">
            <path data-name="사각형 4241" style="fill:none" d="M0 0h45.75v10.354H0z"/>
        </clipPath>
    </defs>
    <path data-name="사각형 4239" style="fill:none" d="M0 0h46v18H0z"/>
    <g data-name="그룹 10196">
        <g data-name="그룹 10195" style="clip-path:url(#aifp11a6ha)" transform="translate(0 4)">
            <path data-name="패스 24069" d="M0 1.349A1.092 1.092 0 0 1 1.1.248h2.99c2.388 0 3.833 1.416 3.833 3.461v.029c0 2.317-1.8 3.518-4.047 3.518H2.2v2.073a1.092 1.092 0 0 1-1.1 1.1 1.092 1.092 0 0 1-1.1-1.1zM3.947 5.3a1.55 1.55 0 0 0 1.745-1.52v-.029c0-.987-.686-1.516-1.788-1.516H2.2V5.3z" transform="translate(0 -.163)" style="fill:#de0015"/>
            <path data-name="패스 24070" d="m21.735 8.793 3.489-7.88A1.362 1.362 0 0 1 26.511.04h.129a1.343 1.343 0 0 1 1.273.873l3.487 7.88a1.056 1.056 0 0 1 .115.443 1.044 1.044 0 0 1-1.044 1.059 1.121 1.121 0 0 1-1.059-.758l-.672-1.573h-4.4l-.7 1.644a1.082 1.082 0 0 1-1.016.687 1.013 1.013 0 0 1-1.015-1.03 1.16 1.16 0 0 1 .128-.472m6.192-2.775-1.387-3.3-1.388 3.3z" transform="translate(-14.164 -.026)" style="fill:#de0015"/>
            <path data-name="패스 24071" d="m50.469 6.456-3.232-4.39a1.306 1.306 0 0 1-.271-.787A1.075 1.075 0 0 1 48.067.22a1.268 1.268 0 0 1 1.087.672l2.431 3.5L54.059.864a1.263 1.263 0 0 1 1.058-.658 1.021 1.021 0 0 1 1.072 1.073 1.368 1.368 0 0 1-.286.772l-3.232 4.362V9.3a1.1 1.1 0 1 1-2.2 0z" transform="translate(-30.787 -.135)" style="fill:#de0015"/>
            <path data-name="패스 24072" d="M73.935 5.2v-.023A5.087 5.087 0 0 1 79.154 0 5.3 5.3 0 0 1 82.5 1.015a1.1 1.1 0 0 1 .429.873 1.074 1.074 0 0 1-1.087 1.072 1.154 1.154 0 0 1-.658-.215 3.3 3.3 0 0 0-2.044-.715 2.966 2.966 0 0 0-2.9 3.118v.029a2.973 2.973 0 0 0 2.9 3.146 3.212 3.212 0 0 0 2.174-.786 1.02 1.02 0 1 1 1.316 1.558A5.274 5.274 0 0 1 73.935 5.2" transform="translate(-48.465)" style="fill:#de0015"/>
            <path data-name="패스 24073" d="M101.92 5.2v-.023a5.322 5.322 0 0 1 10.64-.029v.029a5.322 5.322 0 0 1-10.64.028m8.337 0v-.028a3.041 3.041 0 0 0-3.032-3.147 2.994 2.994 0 0 0-3 3.118v.029a3.041 3.041 0 0 0 3.032 3.146 2.994 2.994 0 0 0 3-3.118" transform="translate(-66.81)" style="fill:#de0015"/>
        </g>
    </g>
</svg>
