<svg xmlns="http://www.w3.org/2000/svg" width="18" height="18" viewBox="0 0 18 18">
    <path data-name="사각형 3595" style="fill:none" d="M0 0h18v18H0z"/>
    <path data-name="패스 30320" d="M7.945.349a.618.618 0 0 1 .826-.287.614.614 0 0 1 .287.287L11.141 4.7a.623.623 0 0 0 .48.348l4.836.6a.62.62 0 0 1 .538.69.611.611 0 0 1-.2.381l-3.533 3.253a.615.615 0 0 0-.186.573l.915 4.689a.619.619 0 0 1-.9.663L8.8 13.578a.619.619 0 0 0-.588 0L3.914 15.9a.62.62 0 0 1-.9-.663l.915-4.688a.619.619 0 0 0-.186-.574L.2 6.715a.619.619 0 0 1 .343-1.07l4.836-.6a.621.621 0 0 0 .48-.348z" transform="translate(.5 1.014)" style="fill:#fc0"/>
</svg>
