<svg xmlns="http://www.w3.org/2000/svg" width="20" height="20" viewBox="0 0 20 20">
    <g data-name="icon_table/20">
        <path data-name="사각형 5798" style="fill:none" d="M0 0h20v20H0z"/>
        <g data-name="그룹 12558">
            <g data-name="그룹 12560">
                <path data-name="패스 30517" d="M17.029.007C14.686 0 5.314 0 2.971.007A2.841 2.841 0 0 0 .007 2.956C0 3.6 0 4.251.008 4.9c.006.515.22.8.729.814a4.41 4.41 0 0 1 2.233.8 4.306 4.306 0 0 0 3.445.507 13.619 13.619 0 0 0 2-.892c.089-.04.212-.093.337-.147v7.247a1.705 1.705 0 0 1-1.142 1.61l-1.777.623v.938h8.338v-.926l-1.78-.628a1.705 1.705 0 0 1-1.139-1.609V5.985c.123.053.244.105.332.145a13.666 13.666 0 0 0 2 .892 4.306 4.306 0 0 0 3.445-.507 4.41 4.41 0 0 1 2.234-.8c.508-.01.722-.3.729-.814.008-.647.011-1.295 0-1.942A2.841 2.841 0 0 0 17.029.007" style="fill:#fff" transform="translate(0 2.803)"/>
            </g>
        </g>
    </g>
</svg>
