<svg xmlns="http://www.w3.org/2000/svg" width="60" height="60" viewBox="0 0 60 60">
    <g data-name="icon_membership/50">
        <path data-name="사각형 5758" style="fill:none" d="M0 0h60v60H0z"/>
        <g data-name="그룹 12497">
            <path data-name="패스 30418" d="m22.467 28.424-2.7-3.3a13.458 13.458 0 0 0-.987-21.582L21.167 0a17.726 17.726 0 0 1 1.3 28.424" transform="translate(4.738 .04)" style="fill:#f70"/>
            <path data-name="패스 30419" d="m13.521 5.231.116 2.352a1.26 1.26 0 0 0 .453.907l1.813 1.5a.3.3 0 0 1-.179.537l-2.353.116a1.257 1.257 0 0 0-.905.453l-1.5 1.812a.3.3 0 0 1-.537-.178l-.116-2.353a1.257 1.257 0 0 0-.453-.905l-1.813-1.5a.3.3 0 0 1 .179-.537l2.352-.116a1.257 1.257 0 0 0 .907-.453l1.5-1.813a.3.3 0 0 1 .537.179" transform="translate(2.002 1.287)" style="fill:#f70"/>
            <path data-name="패스 30424" d="m13.521 5.231.116 2.352a1.26 1.26 0 0 0 .453.907l1.813 1.5a.3.3 0 0 1-.179.537l-2.353.116a1.257 1.257 0 0 0-.905.453l-1.5 1.812a.3.3 0 0 1-.537-.178l-.116-2.353a1.257 1.257 0 0 0-.453-.905l-1.813-1.5a.3.3 0 0 1 .179-.537l2.352-.116a1.257 1.257 0 0 0 .907-.453l1.5-1.813a.3.3 0 0 1 .537.179" transform="translate(43.705 28.815)" style="fill:#8ae62e"/>
            <path data-name="패스 30420" d="m48.4 13.958 1.2 2.59a1.52 1.52 0 0 0 .922.811l2.723.863a.368.368 0 0 1 .044.685l-2.59 1.2a1.52 1.52 0 0 0-.811.922l-.863 2.723a.368.368 0 0 1-.685.044l-1.2-2.59a1.52 1.52 0 0 0-.922-.811l-2.718-.858a.368.368 0 0 1-.044-.685l2.59-1.2a1.52 1.52 0 0 0 .811-.922l.859-2.73a.368.368 0 0 1 .685-.044" transform="translate(-7.816 -13.744)" style="fill:#444"/>
            <path data-name="패스 30421" d="M41.905 36.555 19.469 14.119a.91.91 0 0 0-1.429.185L.443 44.5a3.258 3.258 0 0 0 .511 3.94l6.631 6.63a3.256 3.256 0 0 0 3.942.511l30.192-17.6a.909.909 0 0 0 .185-1.429" transform="translate(0 3.535)" style="fill:#ffbb1d"/>
            <path data-name="패스 30427" d="M2.468 5.774 0 2.715a12.276 12.276 0 0 1 17.244 1.843l-3.059 2.467A8.335 8.335 0 0 0 2.468 5.774" transform="rotate(-7 250.26 -285.893)" style="fill:#8ae62e"/>
            <path data-name="패스 30428" d="M38.453 17.045a2.117 2.117 0 1 1-2.117-2.117 2.116 2.116 0 0 1 2.117 2.117" transform="translate(9.356 4.907)" style="fill:#d5d5d5"/>
            <path data-name="패스 30449" d="M38.453 17.045a2.117 2.117 0 1 1-2.117-2.117 2.116 2.116 0 0 1 2.117 2.117" transform="translate(9.356 33.907)" style="fill:#d5d5d5"/>
            <path data-name="패스 30429" d="M38.453 17.045a2.117 2.117 0 1 1-2.117-2.117 2.116 2.116 0 0 1 2.117 2.117" transform="translate(-33.223 11.419)" style="fill:#d5d5d5"/>
        </g>
    </g>
</svg>
