<svg xmlns="http://www.w3.org/2000/svg" width="50" height="50" viewBox="0 0 50 50">
    <g data-name="icon_review empty/50">
        <path data-name="사각형 5736" style="fill:none" d="M0 0h50v50H0z"/>
        <g data-name="그룹 12598">
            <g data-name="그룹 12450">
                <path data-name="패스 30379" d="M6.32.278A.492.492 0 0 1 6.978.05a.485.485 0 0 1 .228.228l1.657 3.458a.5.5 0 0 0 .382.277l3.847.477a.492.492 0 0 1 .428.548.488.488 0 0 1-.156.3L10.55 7.933a.493.493 0 0 0-.148.456l.728 3.731a.494.494 0 0 1-.718.528L7 10.8a.49.49 0 0 0-.467 0l-3.42 1.848a.493.493 0 0 1-.713-.528l.728-3.73a.494.494 0 0 0-.148-.457L.159 5.342a.492.492 0 0 1 .273-.851l3.847-.478a.492.492 0 0 0 .382-.276z" transform="translate(1 7)" style="fill:#fc0"/>
                <path data-name="패스 30380" d="M23.558.278a.492.492 0 0 1 .658-.228.485.485 0 0 1 .228.228L26.1 3.736a.5.5 0 0 0 .382.277l3.847.477a.492.492 0 0 1 .428.548.488.488 0 0 1-.156.3l-2.813 2.595a.493.493 0 0 0-.148.456l.728 3.731a.494.494 0 0 1-.718.528L24.235 10.8a.49.49 0 0 0-.467 0l-3.417 1.846a.493.493 0 0 1-.717-.528l.728-3.73a.494.494 0 0 0-.148-.457L17.4 5.342a.492.492 0 0 1 .273-.851l3.847-.478a.492.492 0 0 0 .382-.276z" transform="translate(1 7)" style="fill:#fc0"/>
                <path data-name="패스 30381" d="M40.8.278a.492.492 0 0 1 .654-.228.485.485 0 0 1 .228.228l1.657 3.458a.5.5 0 0 0 .382.277l3.847.477a.492.492 0 0 1 .432.548.488.488 0 0 1-.156.3l-2.818 2.595a.493.493 0 0 0-.148.456l.728 3.731a.494.494 0 0 1-.718.528L41.473 10.8a.49.49 0 0 0-.467 0l-3.417 1.846a.493.493 0 0 1-.717-.528L37.6 8.39a.494.494 0 0 0-.148-.457l-2.817-2.591a.492.492 0 0 1 .273-.851l3.847-.478a.492.492 0 0 0 .382-.276z" transform="translate(1 7)" style="fill:#fc0"/>
            </g>
            <g data-name="그룹 12597" transform="translate(-155 -351)">
                <rect data-name="사각형 5737" width="48" height="3" rx="1.5" transform="translate(156 378)" style="fill:#444"/>
                <rect data-name="사각형 5738" width="48" height="3" rx="1.5" transform="translate(156 385)" style="fill:#444"/>
                <rect data-name="사각형 5739" width="20" height="3" rx="1.5" transform="translate(156 392)" style="fill:#444"/>
            </g>
        </g>
    </g>
</svg>
