<svg xmlns="http://www.w3.org/2000/svg" width="22" height="22" viewBox="0 0 22 22">
    <g data-name="btn_star-empty/ 22">
        <path data-name="사각형 3743" style="fill:none" d="M0 0h22v22H0z"/>
        <g data-name="별 default">
            <path data-name="패스 28465" d="M679.778 115.336a.445.445 0 0 1-.392-.227.409.409 0 0 1-.043-.278l1.148-5.731a1.338 1.338 0 0 0-.42-1.254l-4.434-3.975a.416.416 0 0 1-.027-.6.449.449 0 0 1 .273-.138l6.076-.73a1.353 1.353 0 0 0 1.058-.747l2.621-5.332a.448.448 0 0 1 .4-.243.45.45 0 0 1 .4.244l2.621 5.332a1.354 1.354 0 0 0 1.058.745l6.077.73a.447.447 0 0 1 .3.167.408.408 0 0 1 .085.306.416.416 0 0 1-.137.26l-4.434 3.976a1.339 1.339 0 0 0-.42 1.254l1.147 5.73a.411.411 0 0 1-.062.312.445.445 0 0 1-.284.186.515.515 0 0 1-.088.008.454.454 0 0 1-.211-.052l-5.411-2.847a1.377 1.377 0 0 0-1.277 0l-5.411 2.847a.445.445 0 0 1-.213.057z" style="fill:#eff0f1" transform="translate(-675.039 -94.629)"/>
            <path data-name="패스 28466" d="m686.037 96.556-2.609 5.307a1.809 1.809 0 0 1-1.414 1l-6.009.722 4.372 3.919a1.8 1.8 0 0 1 .563 1.686l-1.136 5.673 5.382-2.831a1.828 1.828 0 0 1 1.705 0l5.382 2.831-1.136-5.673a1.8 1.8 0 0 1 .563-1.686l4.372-3.919-6.011-.723a1.811 1.811 0 0 1-1.414-1l-2.61-5.308m0-.928a.911.911 0 0 1 .392.089.894.894 0 0 1 .418.41l2.622 5.332a.9.9 0 0 0 .7.493l6.077.73a.879.879 0 0 1 .5 1.53l-4.434 3.975a.876.876 0 0 0-.277.823l1.148 5.73a.885.885 0 0 1-.709 1.038.923.923 0 0 1-.6-.088l-5.41-2.847a.915.915 0 0 0-.851 0l-5.413 2.849a.909.909 0 0 1-1.218-.362.866.866 0 0 1-.09-.588l1.147-5.73a.873.873 0 0 0-.276-.823l-4.434-3.975a.873.873 0 0 1-.056-1.249.908.908 0 0 1 .553-.28l6.076-.73a.9.9 0 0 0 .7-.494l2.622-5.332a.9.9 0 0 1 .814-.499z" style="fill:#ddd" transform="translate(-675.039 -94.629)"/>
        </g>
    </g>
</svg>
