<svg xmlns="http://www.w3.org/2000/svg" width="15" height="15" viewBox="0 0 15 15">
    <defs>
        <clipPath id="uzhazvisba">
            <path data-name="사각형 5521" style="fill:none" d="M0 0h13v12.214H0z"/>
        </clipPath>
    </defs>
    <g data-name="그룹 11920" style="clip-path:url(#uzhazvisba)">
        <path data-name="패스 30321" d="M6.075.267a.473.473 0 0 1 .632-.219.465.465 0 0 1 .219.219l1.593 3.324a.477.477 0 0 0 .367.266l3.7.458a.474.474 0 0 1 .414.528.465.465 0 0 1-.149.29l-2.71 2.493a.472.472 0 0 0-.141.438l.7 3.586a.473.473 0 0 1-.376.555.467.467 0 0 1-.313-.048l-3.285-1.774a.471.471 0 0 0-.449 0l-3.285 1.774a.473.473 0 0 1-.692-.507L3 8.065a.469.469 0 0 0-.142-.439L.153 5.134a.474.474 0 0 1 .262-.818l3.7-.458a.474.474 0 0 0 .367-.266z" style="fill:#fc0"/>
    </g>
</svg>
