<svg xmlns="http://www.w3.org/2000/svg" width="22" height="22" viewBox="0 0 22 22">
    <g data-name="icon_drive/ 22">
        <path data-name="사각형 5935" style="fill:none" d="M0 0h22v22H0z"/>
        <g data-name="그룹 12954">
            <g data-name="그룹 12952">
                <path data-name="패스 30887" d="M6.46 15.887v2.681c0 .448-.2.644-.646.646h-2.1c-.446 0-.643-.2-.643-.648v-2.679z"/>
                <path data-name="패스 30888" d="M18.929 15.887v2.681c0 .448-.2.644-.646.646h-2.1c-.446 0-.642-.2-.643-.648v-2.679z"/>
            </g>
            <path data-name="패스 30889" d="M1702.622 901.165h1.979a.488.488 0 0 1 .463.345c.03.1.06.2.106.345.214-.59 1.116-3.088 1.373-3.79a1.765 1.765 0 0 1 1.655-1.158h9.842a1.623 1.623 0 0 1 1.635 1.164c.454 1.243.9 2.488 1.371 3.78.045-.144.076-.246.109-.348a.489.489 0 0 1 .464-.338h1.984a.51.51 0 0 1 .5.581l-.086.633a1.1 1.1 0 0 1-1.082.95c-.547 0-1.309.008-1.38.012.046.039.4.611.622.964a1.126 1.126 0 0 1 .169.6v3.484a1.6 1.6 0 0 1-1.6 1.6h-15.286a1.6 1.6 0 0 1-1.6-1.6v-3.513a1.12 1.12 0 0 1 .188-.622l.6-.91s-.843-.008-1.372-.011a1.1 1.1 0 0 1-1.082-.95l-.086-.634a.511.511 0 0 1 .514-.584z" style="fill:#ff6d00" transform="translate(-1702.112 -893.904)"/>
            <g data-name="그룹 12953" transform="translate(-1702.112 -893.904)">
                <path data-name="패스 30890" d="M1708.353 907.793h-2.6a.54.54 0 0 1-.54-.54v-.887a.657.657 0 0 1 .716-.654l3.092.211a.569.569 0 0 1 .517.566v.117a1.188 1.188 0 0 1-1.185 1.187z" style="fill:#fffabb"/>
                <path data-name="패스 30891" d="M1717.871 907.793h2.6a.54.54 0 0 0 .54-.54v-.887a.657.657 0 0 0-.716-.654l-3.092.211a.569.569 0 0 0-.517.566v.117a1.188 1.188 0 0 0 1.185 1.187z" style="fill:#fffabb"/>
                <rect data-name="사각형 6073" width="5.024" height=".617" rx=".309" transform="translate(1710.6 906.623)" style="fill:#e85e00"/>
            </g>
            <path data-name="패스 30892" d="M1706.2 902.2s.971-2.687 1.2-3.3a1.534 1.534 0 0 1 1.44-1.008h8.566a1.412 1.412 0 0 1 1.422 1.013c.4 1.082 1.193 3.29 1.193 3.29z" style="fill:#fff" transform="translate(-1702.112 -893.904)"/>
        </g>
    </g>
</svg>
