<svg xmlns="http://www.w3.org/2000/svg" width="22" height="22" viewBox="0 0 22 22">
    <g data-name="icon_smart order/ 22">
        <path data-name="사각형 5935" style="fill:none" d="M0 0h22v22H0z"/>
        <g data-name="그룹 12908">
            <path data-name="패스 30739" d="M1798.9 749.224h-10.416a1.834 1.834 0 0 0-1.834 1.833v18.333a1.834 1.834 0 0 0 1.834 1.834h10.416a1.834 1.834 0 0 0 1.834-1.834v-18.333a1.834 1.834 0 0 0-1.834-1.833z" transform="translate(-1782.646 -749.224)" style="fill:#494949"/>
            <path data-name="패스 30740" d="M1798.077 750.724h-8.777a1.174 1.174 0 0 0-1.153 1.2v16.609a1.174 1.174 0 0 0 1.153 1.2h8.776a1.175 1.175 0 0 0 1.154-1.2v-16.614a1.175 1.175 0 0 0-1.154-1.2z" transform="translate(-1782.646 -749.224)" style="fill:#efefef"/>
            <path data-name="패스 30741" d="M1798.442 749.278h-9.506v1.444h.959a.345.345 0 0 1 .346.345.744.744 0 0 0 .745.745h5.406a.744.744 0 0 0 .745-.745.345.345 0 0 1 .346-.345h.959z" transform="translate(-1782.646 -749.224)" style="fill:#494949"/>
            <path data-name="패스 30743" d="M1797.267 757.743a.631.631 0 0 0-.892 0l-2.645 2.645-1.174-1.173a.631.631 0 1 0-.892.892l1.618 1.618a.627.627 0 0 0 .4.18h.05a.627.627 0 0 0 .446-.184l3.09-3.09a.632.632 0 0 0-.001-.888z" transform="translate(-1783.423 -748.734)" style="fill:#007bd6"/>
        </g>
    </g>
</svg>
