<svg xmlns="http://www.w3.org/2000/svg" width="22" height="22.001" viewBox="0 0 22 22.001">
    <g data-name="icon_24hour/ 22">
        <path data-name="사각형 6007" style="fill:none" d="M0 0h22v22H0z"/>
        <g data-name="그룹 12893">
            <path data-name="패스 30773" d="M2053.212 919.549c-.392-.054-.786-.1-1.176-.163a10.736 10.736 0 0 1-3.752-19.733 10.969 10.969 0 0 1 8.831-1.136 5.737 5.737 0 0 1 1.242.5c.511.274.4.215.623.329l-.189-1.122a.247.247 0 0 1 .2-.285l.766-.135a.247.247 0 0 1 .287.2l.53 3.044a.247.247 0 0 1-.2.287l-3.045.53a.246.246 0 0 1-.285-.2l-.135-.767a.246.246 0 0 1 .2-.287l1.083-.2a9.438 9.438 0 0 0-12.2 13.6 9.466 9.466 0 0 0 16.642-8.849.245.245 0 0 1 .124-.318l.718-.322a.247.247 0 0 1 .334.145c.162.461.331.907.452 1.366a10.737 10.737 0 0 1-6.872 12.931 10.324 10.324 0 0 1-2.635.545 1.566 1.566 0 0 0-.185.036z" transform="translate(-2042.892 -897.549)" style="fill:#f70"/>
            <path data-name="패스 30774" d="m2055.354 907.2-1.015 1.447h1.179v-1.729h-.023z" transform="translate(-2042.067 -896.876)" style="fill:#f70"/>
            <path data-name="패스 30775" d="M2053.63 901.613a6.91 6.91 0 1 0 6.9 6.921 6.92 6.92 0 0 0-6.9-6.921zm-.3 9.6h-3.862v-.84l1.71-1.878a3.688 3.688 0 0 0 .5-.695 1.179 1.179 0 0 0 .161-.53.815.815 0 0 0-.146-.513.545.545 0 0 0-.465-.189.531.531 0 0 0-.468.246 1.1 1.1 0 0 0-.166.628h-1.264l-.008-.024a1.729 1.729 0 0 1 .508-1.307 1.869 1.869 0 0 1 1.4-.536 2.033 2.033 0 0 1 1.409.448 1.582 1.582 0 0 1 .5 1.235 1.628 1.628 0 0 1-.275.933 11.633 11.633 0 0 1-1.008 1.2l-.675.81.007.019h2.145zm4.6-1.173h-.561v1.173h-1.291v-1.173h-2.21l-.076-.794 2.286-3.58v-.012h1.291v3.386h.561z" transform="translate(-2042.629 -897.268)" style="fill:#f70"/>
        </g>
    </g>
</svg>
