<svg xmlns="http://www.w3.org/2000/svg" width="14.287" height="16" viewBox="0 0 14.287 16">
    <defs>
        <clipPath id="krnw8adx1a">
            <path data-name="사각형 4890" style="fill:#ff963a" d="M0 0h14.287v16H0z"/>
        </clipPath>
    </defs>
    <g data-name="그룹 11339" style="clip-path:url(#krnw8adx1a)">
        <path data-name="패스 30280" d="M10.329 16H1.617A1.619 1.619 0 0 1 0 14.383V3.958a1.619 1.619 0 0 1 1.617-1.617h5.99a1.632 1.632 0 0 1 1.143.473l2.722 2.722a1.607 1.607 0 0 1 .474 1.144v7.7A1.618 1.618 0 0 1 10.329 16M1.617 3.512a.446.446 0 0 0-.446.446v10.425a.446.446 0 0 0 .446.446h8.712a.446.446 0 0 0 .446-.446V6.68a.443.443 0 0 0-.131-.316L7.923 3.642a.453.453 0 0 0-.316-.13z" style="fill:#ff963a"/>
        <path data-name="패스 30281" d="M13.7 12.627a.585.585 0 0 1-.585-.585v-7.7a.443.443 0 0 0-.131-.315L10.264 1.3a.449.449 0 0 0-.315-.131H3.958a.585.585 0 1 1 0-1.17h5.991a1.629 1.629 0 0 1 1.142.472l2.723 2.723a1.606 1.606 0 0 1 .473 1.143v7.7a.585.585 0 0 1-.585.585" style="fill:#ff963a"/>
    </g>
</svg>
