<svg xmlns="http://www.w3.org/2000/svg" width="50" height="50" viewBox="0 0 50 50">
    <g data-name="icon_empty review/ 50">
        <path data-name="사각형 5822" style="fill:none" d="M0 0h50v50H0z"/>
        <g data-name="그룹 12766">
            <path data-name="패스 30594" d="M-302.317 74.515a1.252 1.252 0 0 1-.136-.007c-14.887-1.605-19.133-7-20.339-10.079a8 8 0 0 1 1.511-8.289c3.08-3.537 9.713-4.992 16.129-6.4 7.215-1.581 14.676-3.217 14.843-7.513a3.553 3.553 0 0 0-1.077-2.713c-2.433-2.526-9.141-4.031-17.957-4.031a.312.312 0 0 1-.118 0 1.25 1.25 0 0 1-1.25-1.248 1.25 1.25 0 0 1 1.248-1.252c5.677.02 15.838.6 19.878 4.8a6.014 6.014 0 0 1 1.774 4.544c-.242 6.228-8.663 8.074-16.806 9.859-6.018 1.319-12.241 2.684-14.778 5.6a5.471 5.471 0 0 0-1.069 5.735c.8 2.052 4.2 6.987 18.279 8.505a1.251 1.251 0 0 1 1.109 1.377 1.25 1.25 0 0 1-1.241 1.112z" transform="translate(323.35 -24.708)" style="fill:#707070"/>
            <path data-name="패스 30595" d="m-286.1 63.177-11.625-4.231-1.556 4.274 1.2 7.908 4.414 1.607 6.006-5.283z" transform="translate(323.35 -24.708)" style="fill:#ffca8a"/>
            <path data-name="패스 30596" d="M-296.849 74.629a1.312 1.312 0 0 0 1.318-.248l1.872-1.646-4.415-1.607.375 2.464a1.316 1.316 0 0 0 .85 1.037z" transform="translate(323.35 -24.708)" style="fill:#222"/>
            <path data-name="패스 30597" d="m-275.9 27.255-6.545-2.383a2.7 2.7 0 0 0-3.464 1.616l-1.132 3.111-.835 2.293 11.609 4.274.835-2.293 1.148-3.154a2.7 2.7 0 0 0-1.616-3.464z" transform="translate(323.35 -24.708)" style="fill:#8e8e8e"/>
            <path data-name="패스 30598" d="m-279.169 35.1-2.9-1.069-2.9-1.069-2.9-1.069-11.4 31.329 2.906 1.058 2.906 1.058 2.906 1.058 2.906 1.058 11.387-31.285z" transform="translate(323.35 -24.708)" style="fill:#3582d8"/>
        </g>
    </g>
</svg>
