<svg xmlns="http://www.w3.org/2000/svg" width="30" height="30" viewBox="0 0 30 30">
    <g data-name="icon_best/ 30">
        <path data-name="패스 30578" d="M-265.712 360.4a5.128 5.128 0 0 0-3.357 1.248l-.929.8a3.185 3.185 0 0 1-1.842.763l-1.223.09a5.139 5.139 0 0 0-4.747 4.747l-.091 1.223a3.184 3.184 0 0 1-.763 1.843l-.8.928a5.141 5.141 0 0 0 0 6.714l.8.929a3.178 3.178 0 0 1 .763 1.842l.091 1.223a5.138 5.138 0 0 0 4.747 4.747l1.223.091a3.178 3.178 0 0 1 1.842.763l.929.8a5.132 5.132 0 0 0 3.357 1.247 5.134 5.134 0 0 0 3.357-1.247l.928-.8a3.184 3.184 0 0 1 1.843-.763l1.223-.091a5.139 5.139 0 0 0 4.747-4.747l.09-1.223a3.185 3.185 0 0 1 .763-1.842l.8-.929a5.139 5.139 0 0 0 0-6.714l-.8-.928a3.19 3.19 0 0 1-.763-1.843l-.09-1.223a5.14 5.14 0 0 0-4.747-4.747l-1.223-.09a3.19 3.19 0 0 1-1.843-.763l-.928-.8a5.13 5.13 0 0 0-3.357-1.248z" style="fill:#f70" transform="translate(280.712 -360.402)"/>
        <g data-name="그룹 12615">
            <path data-name="패스 30409" d="M-268.611 376.7v-3.787a1.772 1.772 0 0 1 .084-.578c.469-1.407.93-2.815 1.4-4.22a1.259 1.259 0 0 1 1.439-1.049 1.259 1.259 0 0 1 .8.47 2.179 2.179 0 0 1 .737 1.621c.012.755.016 1.51 0 2.264-.009.3.091.371.376.364a73.332 73.332 0 0 1 2.929 0 2.267 2.267 0 0 1 1.794.714 2.037 2.037 0 0 1 .32 2.027c-.512 1.651-1.075 3.288-1.594 4.93a2.529 2.529 0 0 1-.773 1.362 1.764 1.764 0 0 1-1.11.414q-2.891 0-5.78-.009c-.437 0-.606-.175-.606-.624v-3.9" style="fill:#fff" transform="translate(280.712 -360.402)"/>
            <path data-name="패스 30410" d="M-270.262 377.286v3.16c0 .617-.173.782-.784.784h-.47a1.2 1.2 0 0 1-1.291-1.092c0-.041-.005-.082 0-.123q-.028-2.732 0-5.46a1.161 1.161 0 0 1 .975-1.156 2.978 2.978 0 0 1 1.125-.02c.385.055.449.381.449.713v3.194" style="fill:#fff" transform="translate(280.712 -360.402)"/>
        </g>
    </g>
</svg>
