<svg xmlns="http://www.w3.org/2000/svg" width="18.001" height="18.001" viewBox="0 0 18.001 18.001">
    <defs>
        <clipPath id="slfzlyav7a">
            <path data-name="사각형 4695" style="fill:#444" d="M0 0h18.001v18.001H0z"/>
        </clipPath>
    </defs>
    <g data-name="icon_QR/18">
        <path data-name="패스 30340" d="M12.1 13.75H5.065a1.649 1.649 0 0 1-1.649-1.65V5.066a1.649 1.649 0 0 1 1.649-1.65H12.1a1.649 1.649 0 0 1 1.65 1.65V12.1a1.649 1.649 0 0 1-1.65 1.65" transform="translate(.584 .584)" style="fill:#bac1e9"/>
        <g data-name="그룹 11053">
            <g data-name="그룹 11052" style="clip-path:url(#slfzlyav7a)">
                <path data-name="패스 30237" d="M.832 6.143a.833.833 0 0 0 .832-.832V2.318a.654.654 0 0 1 .653-.653h2.995a.832.832 0 1 0 0-1.665H2.318A2.321 2.321 0 0 0 0 2.318v2.993a.833.833 0 0 0 .832.832" style="fill:#444"/>
                <path data-name="패스 30238" d="M17.133 0h-2.994a.832.832 0 1 0 0 1.664h2.994a.654.654 0 0 1 .653.653v2.994a.832.832 0 1 0 1.664 0V2.317A2.32 2.32 0 0 0 17.133 0" transform="translate(-1.449)" style="fill:#444"/>
                <path data-name="패스 30239" d="M18.618 13.306a.833.833 0 0 0-.832.832v2.993a.654.654 0 0 1-.653.654h-2.995a.832.832 0 0 0 0 1.664h2.994a2.319 2.319 0 0 0 2.317-2.318v-2.993a.832.832 0 0 0-.831-.832" transform="translate(-1.449 -1.449)" style="fill:#444"/>
                <path data-name="패스 30240" d="M5.312 17.786H2.318a.654.654 0 0 1-.654-.653v-2.995a.832.832 0 1 0-1.664 0v2.994a2.32 2.32 0 0 0 2.318 2.317h2.994a.832.832 0 1 0 0-1.664" transform="translate(0 -1.449)" style="fill:#444"/>
                <path data-name="패스 30241" d="M.222 10a.833.833 0 0 0 .832.832H17a.832.832 0 0 0 0-1.665H1.054A.833.833 0 0 0 .222 10" transform="translate(-.024 -.998)" style="fill:#444"/>
            </g>
        </g>
    </g>
</svg>
