<svg xmlns="http://www.w3.org/2000/svg" width="22" height="22" viewBox="0 0 22 22">
    <g data-name="icon_shop/ 22">
        <path data-name="사각형 6077" style="fill:none" d="M0 0h22v22H0z"/>
        <g data-name="그룹 12991">
            <path data-name="패스 30921" d="M1213.862-217.452a7119.26 7119.26 0 0 0-.014 9.52 2.2 2.2 0 0 0 2.208 2.2c.59 0 2.356-.005 4.491-.007a.7.7 0 0 0 .7-.7v-3.072a2.384 2.384 0 0 1 2.384-2.384 2.383 2.383 0 0 1 2.384 2.384v3.07a.7.7 0 0 0 .7.7h4.482a2.208 2.208 0 0 0 2.216-2.212v-9.5z" style="fill:#aaa" transform="translate(-1212.635 226.492)"/>
            <path data-name="패스 30922" d="M1234.468-219.259c-.293-.912-1.152-3.119-1.754-4.647a2.509 2.509 0 0 0-2.333-1.586h-13.493a2.509 2.509 0 0 0-2.334 1.586c-.6 1.528-1.46 3.735-1.753 4.647a3.533 3.533 0 0 0 5.159 4.107 4.162 4.162 0 0 0 1.847-1.739l.108-.193a4.121 4.121 0 0 0 3.719 2.383 4.121 4.121 0 0 0 3.719-2.383h.007a4.185 4.185 0 0 0 1.948 1.932 3.534 3.534 0 0 0 5.16-4.107z" style="fill:#888" transform="translate(-1212.635 226.492)"/>
        </g>
    </g>
</svg>
