<svg xmlns="http://www.w3.org/2000/svg" width="50" height="50" viewBox="0 0 50 50">
    <g data-name="icon_empty coupon/ 50">
        <g data-name="그룹 9308">
            <path data-name="사각형 3781" style="fill:none" d="M0 0h50v50H0z"/>
            <g data-name="그룹 9307">
                <g data-name="그룹 9288">
                    <g data-name="그룹 9284">
                        <path data-name="패스 28796" d="M10.066.949A21.672 21.672 0 0 1 1.06.365C.475.186 0 .475 0 1.06v5.373a1.609 1.609 0 0 0 1.06 1.425 3.49 3.49 0 0 1 2.546 3.122 1.93 1.93 0 0 1-2.546 1.97c-.586-.179-1.06.11-1.06.7v5.373a1.61 1.61 0 0 0 1.06 1.425 21.677 21.677 0 0 0 9.005.584zm0-.949" transform="rotate(14.98 .068 73.037)" style="fill:#d4d4d4"/>
                        <path data-name="패스 28797" d="M20.441 8.288c.585.179 1.06-.109 1.06-.7V2.22a1.61 1.61 0 0 0-1.06-1.425C13.627-1.3 6.813 1.317 0 2.106v20.079c6.813-.79 13.627-3.4 20.441-1.311.585.179 1.06-.11 1.06-.7v-5.369a1.609 1.609 0 0 0-1.06-1.425 3.491 3.491 0 0 1-2.547-3.122 1.931 1.931 0 0 1 2.547-1.971zm0 .365" transform="rotate(14.98 -.59 111.882)" style="fill:#d4d4d4"/>
                    </g>
                </g>
                <g data-name="그룹 9285">
                    <g data-name="그룹 9284">
                        <path data-name="패스 28796" d="M-330.508-824.819a26.238 26.238 0 0 1-10.9-.707c-.709-.216-1.284.133-1.284.842v6.5a1.948 1.948 0 0 0 1.284 1.725 4.225 4.225 0 0 1 3.082 3.78 2.337 2.337 0 0 1-3.082 2.385c-.709-.217-1.284.133-1.284.841v6.5a1.948 1.948 0 0 0 1.284 1.725 26.238 26.238 0 0 0 10.9.707zm0-1.148" transform="translate(342.693 847.847)" style="fill:#baa9fb"/>
                        <path data-name="패스 28797" d="M-303.4-817.607c.708.216 1.283-.133 1.283-.842v-6.5a1.949 1.949 0 0 0-1.283-1.725c-8.249-2.534-16.5.632-24.746 1.587v24.307c8.248-.956 16.5-4.122 24.746-1.587.708.216 1.283-.133 1.283-.842v-6.5a1.948 1.948 0 0 0-1.283-1.725 4.226 4.226 0 0 1-3.083-3.779 2.337 2.337 0 0 1 3.083-2.386zm0 .441" transform="translate(339.51 848.117)" style="fill:#baa9fb"/>
                    </g>
                </g>
                <path data-name="패스 28798" d="M.308 16.393c6.963-2.417 6.521-8.906 3.353-10.987C.915 3.6-2.234 8.882 2.25 10.309 7.819 12.082 13.508 3.747 10.789 0" transform="rotate(19.01 -19.692 102.013)" style="stroke:#444;stroke-linecap:round;stroke-linejoin:round;stroke-width:2px;fill:none"/>
            </g>
        </g>
    </g>
</svg>
