<svg xmlns="http://www.w3.org/2000/svg" width="18" height="18" viewBox="0 0 18 18">
    <path data-name="사각형 4368" style="fill:none" d="M0 0h18v18H0z"/>
    <path data-name="패스 30189" d="m9.177.268 2.331 4.723a.483.483 0 0 0 .362.262l5.211.757a.481.481 0 0 1 .267.819l-3.771 3.676a.482.482 0 0 0-.138.426l.891 5.19a.481.481 0 0 1-.7.507l-4.66-2.45a.477.477 0 0 0-.448 0l-4.66 2.45a.481.481 0 0 1-.7-.507l.891-5.19a.482.482 0 0 0-.138-.426L.144 6.829a.481.481 0 0 1 .267-.819l5.211-.757a.483.483 0 0 0 .362-.262L8.315.268a.48.48 0 0 1 .862 0" transform="translate(0 .437)" style="fill:#fc0"/>
</svg>
