<svg xmlns="http://www.w3.org/2000/svg" width="20" height="20" viewBox="0 0 20 20">
    <defs>
        <clipPath id="hftwb0cwna">
            <path data-name="사각형 6192" style="fill:none" d="M0 0h20v20H0z"/>
        </clipPath>
    </defs>
    <g data-name="그룹 13176" style="clip-path:url(#hftwb0cwna)">
        <g data-name="그룹 13175">
            <g data-name="그룹 13174" style="clip-path:url(#hftwb0cwna)">
                <path data-name="패스 31025" d="M19.132 4.062H4.4l-.421-2.241a.651.651 0 0 0-.639-.532H.927a.651.651 0 0 0 0 1.3H2.8l2.3 12.335a2.1 2.1 0 0 0 2.057 1.694h.885a1.157 1.157 0 0 0-.61 1.008 1.172 1.172 0 1 0 2.344 0 1.157 1.157 0 0 0-.61-1.008h4.945a1.158 1.158 0 0 0-.609 1.008 1.171 1.171 0 1 0 2.343 0 1.157 1.157 0 0 0-.61-1.008h1.5a.651.651 0 0 0 0-1.3H7.153a.8.8 0 0 1-.78-.637l-.226-1.217a.881.881 0 0 0 .72.382h10.362a.89.89 0 0 0 .876-.728l1.56-8.418a.542.542 0 0 0-.533-.641m-9.974 6.408a.529.529 0 1 1-1.058 0V7.44a.529.529 0 1 1 1.058 0zm3.364 0a.529.529 0 1 1-1.058 0V7.44a.529.529 0 0 1 1.058 0zm3.364 0a.529.529 0 1 1-1.058 0V7.44a.529.529 0 1 1 1.058 0z" style="fill:#ababae"/>
            </g>
        </g>
    </g>
</svg>
