<svg xmlns="http://www.w3.org/2000/svg" width="18" height="18" viewBox="0 0 18 18">
    <path data-name="사각형 4510" style="fill:none;opacity:.3" d="M0 0h18v18H0z"/>
    <path data-name="패스 30199" d="M4.269 0a1.408 1.408 0 0 1 .746.381 1.267 1.267 0 0 1 .355.867 9.656 9.656 0 0 0 .241 2.039c.068.28.154.557.224.837a1.256 1.256 0 0 1-.263 1.126c-.439.566-.867 1.14-1.3 1.714a.168.168 0 0 0-.007.146 9.419 9.419 0 0 0 3.2 3.608c.333.214.678.41 1.013.62a.151.151 0 0 0 .2-.016q.871-.669 1.747-1.328a1.221 1.221 0 0 1 1.04-.211c.45.1.892.245 1.346.324a7.809 7.809 0 0 0 1.332.13 1.347 1.347 0 0 1 1.467 1.11v3.172a.143.143 0 0 0-.02.04 1.266 1.266 0 0 1-1.309 1.059 15.172 15.172 0 0 1-3.007-.338 14.166 14.166 0 0 1-4.961-2.136A14.371 14.371 0 0 1 0 1.283 1.254 1.254 0 0 1 .293.454 1.4 1.4 0 0 1 1.1 0z" transform="translate(1.191 1.191)" style="fill:#ff9130"/>
</svg>
