<svg xmlns="http://www.w3.org/2000/svg" width="18" height="18" viewBox="0 0 18 18">
    <path data-name="사각형 5727" style="fill:none" d="M0 0h18v18H0z"/>
    <g data-name="그룹 12442">
        <path data-name="패스 30365" d="M6.2 1.837 1.818 6.189.442 4.8a1.525 1.525 0 0 1 .009-2.154L2.67.443a1.525 1.525 0 0 1 2.157.008z" transform="translate(.001)" style="fill:#8e8e8e"/>
        <path data-name="패스 30366" d="M17.349 17.977a.416.416 0 0 0 .526-.522l-.5-1.571-1.594 1.579z"/>
        <path data-name="패스 30367" d="m11.668 16.113 4.113 1.349 1.59-1.579-1.318-4.122-.7-.7-4.384 4.352z" transform="translate(.001)" style="fill:#ffca8a"/>
        <path data-name="패스 30368" d="m1.819 6.189 9.85 9.924.443-1 1.007-.436L3.27 4.749z" transform="translate(.001)" style="fill:#ffb000"/>
        <path data-name="패스 30369" d="M4.753 3.277 14.6 13.2l.443-1 1.007-.436L6.2 1.837z" transform="translate(.001)" style="fill:#ffb000"/>
        <path data-name="패스 30370" d="m3.269 4.749 9.85 9.924.46-1.02L14.6 13.2 4.753 3.276z" transform="translate(.001)" style="fill:#ff9d00"/>
    </g>
</svg>
