<svg xmlns="http://www.w3.org/2000/svg" width="20" height="20" viewBox="0 0 20 20">
    <defs>
        <clipPath id="trf6wl2y6a">
            <path data-name="사각형 5777" style="fill:#fff" d="M0 0h20v19.993H0z"/>
        </clipPath>
    </defs>
    <g data-name="icon_delivery/20">
        <path data-name="사각형 5796" style="fill:none" d="M0 0h20v20H0z"/>
        <g data-name="그룹 12515">
            <g data-name="그룹 12514" style="clip-path:url(#trf6wl2y6a)">
                <path data-name="패스 30452" d="m.578 15.725 2.336-.851 5.463-1.981a3.553 3.553 0 0 0 2.33-3.259c.013-.8 0-1.591 0-2.386a.727.727 0 0 0-.81-.813H1.029c.289-.493.527-.963.822-1.395A11.022 11.022 0 0 1 10.058.074a9.687 9.687 0 0 1 5.694.978 7.624 7.624 0 0 1 4.055 5.584 12.992 12.992 0 0 1-.329 5.781c-.085.331-.2.654-.278.986a.9.9 0 0 1-.617.666Q14.79 15.525 11 17l-7.475 2.886a.767.767 0 0 1-1.061-.259 9.073 9.073 0 0 1-1.745-3.4c-.048-.156-.089-.313-.141-.5" style="fill:#fff"/>
                <path data-name="패스 30453" d="M9.241 7.867a18.15 18.15 0 0 1-.017 2.09 1.857 1.857 0 0 1-1.27 1.564c-2.505.923-5.017 1.827-7.527 2.738-.041.015-.085.022-.161.041-.066-.532-.144-1.051-.194-1.573A12.4 12.4 0 0 1 .44 8.048c.039-.135.086-.19.236-.19q4.226.008 8.449 0c.042 0 .087 0 .116.005" style="fill:#fff"/>
            </g>
        </g>
    </g>
</svg>
