<svg xmlns="http://www.w3.org/2000/svg" width="18" height="18" viewBox="0 0 18 18">
    <g data-name="icon_apple/18">
        <path data-name="사각형 6105" style="fill:none" d="M0 0h18v18H0z"/>
        <g data-name="그룹 12500">
            <g data-name="그룹 12502">
                <path data-name="패스 30340" d="M13.666 9.105a3.867 3.867 0 0 1 1.847-3.254 4.007 4.007 0 0 0-3.127-1.7c-1.334-.135-2.6.787-3.278.787s-1.721-.765-2.824-.742A4.188 4.188 0 0 0 2.74 6.338c-1.508 2.623-.388 6.502 1.084 8.623.718 1.04 1.574 2.208 2.7 2.166 1.086-.042 1.5-.7 2.807-.7s1.679.7 2.827.683c1.165-.024 1.905-1.064 2.617-2.1a9.478 9.478 0 0 0 1.186-2.437 3.777 3.777 0 0 1-2.3-3.466"/>
                <path data-name="패스 30341" d="M11.51 2.745a3.754 3.754 0 0 0 .891-2.732 3.833 3.833 0 0 0-2.519 1.3 3.586 3.586 0 0 0-.91 2.651A3.178 3.178 0 0 0 11.51 2.75"/>
            </g>
        </g>
    </g>
</svg>
