<svg xmlns="http://www.w3.org/2000/svg" width="22" height="22" viewBox="0 0 22 22">
    <g data-name="icon_photo/ 22">
        <path data-name="사각형 5935" style="fill:none" d="M0 0h22v22H0z"/>
        <g data-name="그룹 12852">
            <path data-name="패스 30683" d="M1973.479 722.233a1.285 1.285 0 0 0-1.143-.7h-3.847a1.283 1.283 0 0 0-1.143.7l-3.257 6.378h12.646z" transform="translate(-1959.413 -719.033)" style="fill:#828282"/>
            <path data-name="패스 30684" d="M1964.641 722.944h-3.071a.32.32 0 0 0-.321.32v2.244h3.711v-2.244a.32.32 0 0 0-.319-.32z" transform="translate(-1959.589 -718.945)" style="fill:#b5b5b5"/>
            <path data-name="패스 30685" d="M1980 724.2h-18.679a1.281 1.281 0 0 0-1.282 1.282v10.343a1.282 1.282 0 0 0 1.282 1.283H1980a1.283 1.283 0 0 0 1.282-1.283v-10.339A1.282 1.282 0 0 0 1980 724.2z" transform="translate(-1959.664 -718.165)" style="fill:#616161"/>
            <path data-name="패스 30686" d="M1977.553 730.7a7.095 7.095 0 1 1-7.095-7.1 7.1 7.1 0 0 1 7.095 7.1zm0 0" transform="translate(-1959.458 -718.202)" style="fill:#b5b5b5"/>
            <path data-name="패스 30687" d="M1976.2 730.62a5.813 5.813 0 1 1-5.813-5.813 5.813 5.813 0 0 1 5.813 5.813zm0 0" transform="translate(-1959.383 -718.127)" style="fill:#494949"/>
            <path data-name="패스 30688" d="M1970.268 726.655a3.85 3.85 0 1 0 3.85 3.85 3.851 3.851 0 0 0-3.85-3.85z" transform="translate(-1959.268 -718.013)" style="fill:#0c0c0c"/>
        </g>
    </g>
</svg>
