<svg xmlns="http://www.w3.org/2000/svg" width="22" height="22" viewBox="0 0 22 22">
    <g data-name="icon_self/ 22">
        <path data-name="사각형 6005" style="fill:none" d="M0 0h22v22H0z"/>
        <g data-name="그룹 12903">
            <path data-name="패스 30792" d="m1711.99 950.053.962 11.9a2.281 2.281 0 0 0 2.274 2.1h8.433a2.281 2.281 0 0 0 2.274-2.1l.962-11.9a.437.437 0 0 0-.436-.472h-14.034a.436.436 0 0 0-.435.472z" style="fill:#d1dfe5" transform="translate(-1707.988 -942.264)"/>
            <g data-name="그룹 12902">
                <path data-name="패스 30793" d="M1715.858 946.533a.52.52 0 0 0-.182-.427 2.387 2.387 0 0 0-.661-.316 5.011 5.011 0 0 1-1.439-.67 1.205 1.205 0 0 1-.469-1.023 1.256 1.256 0 0 1 .546-1.058 2.632 2.632 0 0 1 2.823.013 1.347 1.347 0 0 1 .525 1.173l-.007.022h-1.172a.655.655 0 0 0-.2-.534.928.928 0 0 0-.6-.167.775.775 0 0 0-.518.161.5.5 0 0 0-.189.4.428.428 0 0 0 .195.366 3.755 3.755 0 0 0 .726.345 3.853 3.853 0 0 1 1.369.654 1.3 1.3 0 0 1 .464 1.057 1.252 1.252 0 0 1-.536 1.074 2.376 2.376 0 0 1-1.422.387 2.6 2.6 0 0 1-1.495-.416 1.435 1.435 0 0 1-.6-1.309l.008-.022h1.175a.808.808 0 0 0 .223.645 1.031 1.031 0 0 0 .684.191.889.889 0 0 0 .565-.15.481.481 0 0 0 .187-.396z" style="fill:#4a4256" transform="translate(-1707.988 -942.264)"/>
                <path data-name="패스 30794" d="M1719.366 947.987a1.793 1.793 0 0 1-1.377-.532 1.9 1.9 0 0 1-.5-1.347v-.136a2.164 2.164 0 0 1 .47-1.443 1.673 1.673 0 0 1 1.36-.554 1.567 1.567 0 0 1 1.213.468 1.823 1.823 0 0 1 .43 1.283v.632h-2.215l-.007.022a.751.751 0 0 0 .225.491.787.787 0 0 0 .565.187 2.461 2.461 0 0 0 .577-.057 3.693 3.693 0 0 0 .526-.182l.29.736a2.194 2.194 0 0 1-.672.307 3.075 3.075 0 0 1-.885.125zm-.046-3.083a.5.5 0 0 0-.427.184.92.92 0 0 0-.159.5l.007.018h1.043v-.092a.8.8 0 0 0-.106-.454.4.4 0 0 0-.358-.16z" style="fill:#4a4256" transform="translate(-1707.988 -942.264)"/>
                <path data-name="패스 30795" d="M1722.738 947.912h-1.211v-5.573h1.211z" style="fill:#4a4256" transform="translate(-1707.988 -942.264)"/>
                <path data-name="패스 30796" d="M1723.739 947.912v-3.029h-.557v-.836h.557v-.4a1.3 1.3 0 0 1 .4-1.023 1.642 1.642 0 0 1 1.133-.359 2.216 2.216 0 0 1 .28.019c.094.014.2.032.316.056l-.089.889a4.24 4.24 0 0 0-.175-.026 1.561 1.561 0 0 0-.183-.009.479.479 0 0 0-.349.118.44.44 0 0 0-.122.335v.4h.765v.836h-.765v3.029z" style="fill:#4a4256" transform="translate(-1707.988 -942.264)"/>
            </g>
            <path data-name="패스 30797" d="M1716.2 954.343a3.955 3.955 0 0 1-1.813-.432l.6 7.411a.868.868 0 0 0 .866.8h7.189a.869.869 0 0 0 .866-.8l.62-7.671a3.964 3.964 0 0 0-2.2-.648c-2.048-.003-4.09 1.34-6.128 1.34z" style="fill:#9ecaef" transform="translate(-1707.988 -942.264)"/>
        </g>
    </g>
</svg>
