<svg xmlns="http://www.w3.org/2000/svg" width="22" height="22" viewBox="0 0 22 22">
    <defs>
        <clipPath id="wtrnkptata">
            <path data-name="사각형 5946" style="fill:#333c51" d="M0 0h20v9.924H0z"/>
        </clipPath>
    </defs>
    <g data-name="icon_etc/ 22">
        <path data-name="사각형 6036" style="fill:none" d="M0 0h22v22H0z"/>
        <g data-name="그룹 12806" transform="translate(1 5)" style="clip-path:url(#wtrnkptata)">
            <path data-name="패스 30636" d="M3.21 9.748A3.051 3.051 0 0 1 .663 8.656a3.41 3.41 0 0 1-.6-2.761L.1 5.6a4.961 4.961 0 0 1 1.382-2.92A3.813 3.813 0 0 1 4.29 1.6a2.627 2.627 0 0 1 2.253.979 3.359 3.359 0 0 1 .482 2.6l-.16 1.1H2.179l-.014.037a1.845 1.845 0 0 0 .275 1.316 1.436 1.436 0 0 0 1.233.49A4.667 4.667 0 0 0 4.9 7.973 5.594 5.594 0 0 0 6 7.534l.38 1.306A4.784 4.784 0 0 1 5 9.486a6 6 0 0 1-1.791.262m.841-6.516a1.356 1.356 0 0 0-1.027.442 2.636 2.636 0 0 0-.606 1.153l.014.044H5l.022-.16a1.7 1.7 0 0 0-.112-1.1.906.906 0 0 0-.86-.384" transform="translate(0 .177)" style="fill:#333c51"/>
            <path data-name="패스 30637" d="m10.82 0-.29 1.922h1.328L11.64 3.41H10.3l-.594 4a.84.84 0 0 0 .087.663.6.6 0 0 0 .479.186 2.187 2.187 0 0 0 .294-.019 2.354 2.354 0 0 0 .293-.061l-.058 1.531a4.65 4.65 0 0 1-.642.162 3.781 3.781 0 0 1-.663.054 1.959 1.959 0 0 1-1.579-.609 2.33 2.33 0 0 1-.322-1.9l.594-4H7.054l.218-1.488h1.146L8.708 0z" transform="translate(.784)" style="fill:#333c51"/>
            <path data-name="패스 30638" d="M14.977 8.122a1.363 1.363 0 0 0 .918-.333 1.418 1.418 0 0 0 .476-.878h1.922l.014.043a2.924 2.924 0 0 1-1.179 2.013 3.823 3.823 0 0 1-2.39.78 2.87 2.87 0 0 1-2.492-1.129 3.7 3.7 0 0 1-.556-2.833l.029-.217a4.946 4.946 0 0 1 1.371-2.88A3.886 3.886 0 0 1 15.941 1.6a2.819 2.819 0 0 1 2.167.834 2.41 2.41 0 0 1 .547 2.177l-.014.036H16.7a1.422 1.422 0 0 0-.163-1.019.925.925 0 0 0-.838-.4 1.442 1.442 0 0 0-1.251.668 3.926 3.926 0 0 0-.613 1.669l-.029.217a3.372 3.372 0 0 0 .08 1.709 1.038 1.038 0 0 0 1.088.628" transform="translate(1.292 .177)" style="fill:#333c51"/>
        </g>
    </g>
</svg>
