<svg xmlns="http://www.w3.org/2000/svg" width="48" height="48" viewBox="0 0 48 48">
    <defs>
        <clipPath id="25l708qrca">
            <path data-name="사각형 6096" style="fill:none" d="M0 0h18.862v19.241H0z"/>
        </clipPath>
    </defs>
    <g data-name="btn_googler/48">
        <g data-name="그룹 12100">
            <g data-name="타원 561" style="stroke:#ddd;fill:none">
                <circle cx="24" cy="24" r="24" style="stroke:none"/>
                <circle cx="24" cy="24" r="23.5" style="fill:none"/>
            </g>
        </g>
        <g data-name="그룹 12499">
            <path data-name="사각형 6104" transform="translate(14 14)" style="fill:none" d="M0 0h20v20H0z"/>
            <g data-name="그룹 12489">
                <g data-name="그룹 12478" transform="translate(14.569 14.379)" style="clip-path:url(#25l708qrca)">
                    <path data-name="패스 30342" d="M6.477.528A9.688 9.688 0 0 0 1.025 5.3 9.37 9.37 0 0 0 .19 7.72a9.623 9.623 0 0 0 6.944 11.195 10.279 10.279 0 0 0 4.924.054A8.685 8.685 0 0 0 16 16.922a8.775 8.775 0 0 0 2.435-3.992 11.293 11.293 0 0 0 .242-5.107h-9.06v3.755h5.242a4.533 4.533 0 0 1-1.929 2.974 5.473 5.473 0 0 1-2.117.835 6.33 6.33 0 0 1-2.3-.005 5.613 5.613 0 0 1-2.144-.927 5.96 5.96 0 0 1-2.2-2.952 5.819 5.819 0 0 1 0-3.744 5.925 5.925 0 0 1 1.4-2.268 5.655 5.655 0 0 1 5.691-1.483 5.224 5.224 0 0 1 2.074 1.218c.592-.587 1.179-1.18 1.772-1.767.307-.318.636-.619.937-.948a9.287 9.287 0 0 0-3.1-1.918A9.633 9.633 0 0 0 6.477.528" transform="translate(0 -.001)" style="fill:#fff"/>
                    <path data-name="패스 30343" d="M7.085.528a9.7 9.7 0 0 1 6.481.059 9.34 9.34 0 0 1 3.1 1.918c-.3.323-.625.63-.937.948-.593.587-1.18 1.179-1.772 1.767A5.157 5.157 0 0 0 11.879 4a5.656 5.656 0 0 0-5.694 1.484 5.932 5.932 0 0 0-1.4 2.268c-1.051-.813-2.1-1.632-3.152-2.446A9.653 9.653 0 0 1 7.085.528" transform="translate(-.608)" style="fill:#e94435"/>
                    <path data-name="패스 30344" d="M.189 10.851a9.611 9.611 0 0 1 .835-2.419c1.051.814 2.1 1.632 3.152 2.446a5.828 5.828 0 0 0 0 3.744c-1.051.814-2.1 1.632-3.152 2.446a9.611 9.611 0 0 1-.835-6.217" transform="translate(0 -3.131)" style="fill:#f8bb15"/>
                    <path data-name="패스 30345" d="M15.3 12.434h9.056a11.284 11.284 0 0 1-.243 5.107 8.735 8.735 0 0 1-2.435 3.992c-1.018-.792-2.041-1.584-3.054-2.375a4.52 4.52 0 0 0 1.928-2.974h-5.237c-.016-1.245-.011-2.495-.011-3.75" transform="translate(-5.682 -4.617)" style="fill:#547dbe"/>
                    <path data-name="패스 30346" d="M1.63 20.732c1.051-.814 2.1-1.632 3.152-2.446a5.934 5.934 0 0 0 2.2 2.952 5.681 5.681 0 0 0 2.144.927 6.33 6.33 0 0 0 2.3.006 5.474 5.474 0 0 0 2.117-.835c1.019.792 2.042 1.584 3.054 2.375a8.628 8.628 0 0 1-3.938 2.047 10.289 10.289 0 0 1-4.925-.058 9.619 9.619 0 0 1-3.5-1.762 9.783 9.783 0 0 1-2.604-3.206" transform="translate(-.605 -6.79)" style="fill:#34a751"/>
                </g>
            </g>
        </g>
    </g>
</svg>
