<svg xmlns="http://www.w3.org/2000/svg" width="24" height="24" viewBox="0 0 24 24">
    <defs>
        <clipPath id="p082wqvzna">
            <path data-name="사각형 6698" style="fill:#444" d="M0 0h17.5v23.94H0z"/>
        </clipPath>
    </defs>
    <g data-name="icon_phone/24">
        <path data-name="사각형 6690" style="fill:none" d="M0 0h24v24H0z"/>
        <g data-name="그룹 14009" transform="translate(3.25)" style="clip-path:url(#p082wqvzna)">
            <path data-name="패스 30752" d="M14.35 23.94H3.15A3.154 3.154 0 0 1 0 20.79V3.15A3.153 3.153 0 0 1 3.15 0h11.2a3.153 3.153 0 0 1 3.15 3.15v17.64a3.154 3.154 0 0 1-3.15 3.15M3.15 1.5A1.652 1.652 0 0 0 1.5 3.15v17.64a1.652 1.652 0 0 0 1.65 1.65h11.2A1.652 1.652 0 0 0 16 20.79V3.15a1.652 1.652 0 0 0-1.65-1.65z" style="fill:#444"/>
            <path data-name="패스 30753" d="M8.75 20.7a2.03 2.03 0 1 1 2.03-2.03 2.031 2.031 0 0 1-2.03 2.03m0-2.86a.83.83 0 1 0 .83.83.831.831 0 0 0-.83-.83" style="fill:#444"/>
        </g>
    </g>
</svg>
