<svg xmlns="http://www.w3.org/2000/svg" width="22" height="22" viewBox="0 0 22 22">
    <g data-name="icon_always/ 22">
        <path data-name="사각형 6006" style="fill:none" d="M0 0h22v22H0z"/>
        <g data-name="그룹 12895">
            <path data-name="패스 30776" d="M1995.61 942.446a1.271 1.271 0 0 0-1.271-1.27h-16.458a1.271 1.271 0 0 0-1.271 1.271v4.129l17.729 4.658v-3.546l1.271-1.112z" style="fill:#56a6e8" transform="translate(-1975.609 -938.372)"/>
            <path data-name="패스 30777" d="M1995.61 946.575h-1.271l-17.729 9.616v1.489a1.27 1.27 0 0 0 1.27 1.27h16.459a1.271 1.271 0 0 0 1.271-1.269z" style="fill:#dcdcdc" transform="translate(-1975.609 -938.372)"/>
            <path data-name="패스 23391" d="m1986.969 948.818.526 7.9 7.37-7.37z" style="fill:#c4c4c4" transform="translate(-1975.609 -938.372)"/>
            <path data-name="패스 30778" d="M1994.339 946.575h-17.729v9.615a1.271 1.271 0 0 0 1.271 1.27h7.816a2.542 2.542 0 0 0 2.542-2.54v-3.558a1.271 1.271 0 0 1 1.271-1.271h3.558a2.542 2.542 0 0 0 2.542-2.54v-.975z" style="fill:#efefef" transform="translate(-1975.609 -938.372)"/>
            <path data-name="패스 23395" d="M1990.844 939.372a.953.953 0 0 0-.953.953v2.542a.953.953 0 0 0 1.906.015v-2.557a.953.953 0 0 0-.953-.953z" style="fill:#6b6b6b" transform="translate(-1975.609 -938.372)"/>
            <path data-name="패스 23397" d="M1981.376 939.372a.953.953 0 0 0-.953.953v2.542a.953.953 0 0 0 1.906 0v-2.542a.952.952 0 0 0-.953-.953z" style="fill:#6b6b6b" transform="translate(-1975.609 -938.372)"/>
        </g>
    </g>
</svg>
