<svg xmlns="http://www.w3.org/2000/svg" width="22" height="22" viewBox="0 0 22 22">
    <g data-name="icon_seat/ 22">
        <path data-name="사각형 5935" style="fill:none" d="M0 0h22v22H0z"/>
        <g data-name="그룹 12803">
            <path data-name="패스 30623" d="m1747.964 743.012-.231-.581a.61.61 0 0 0-.567-.386H1733.1a.61.61 0 0 0-.568.386l-.231.581h-1.25l.236-3.336a.819.819 0 0 1 .811-.707h16.073a.818.818 0 0 1 .811.707l.237 3.336z" style="fill:#603102" transform="translate(-1729.131 -723.418)"/>
            <path data-name="패스 30624" d="M1740.131 726.418a36.876 36.876 0 0 0-7.757.87 2.28 2.28 0 0 0-1.787 2.228v4.943a.532.532 0 0 0 .532.532h18.026a.532.532 0 0 0 .532-.532v-4.942a2.28 2.28 0 0 0-1.788-2.229 36.884 36.884 0 0 0-7.758-.87z" style="fill:#2176c7" transform="translate(-1729.131 -723.418)"/>
            <g data-name="그룹 12801">
                <path data-name="패스 30625" d="M1734.758 733.454a10.427 10.427 0 0 0-2.308.273.493.493 0 0 0-.379.479v1.644h5.373v-1.643a.492.492 0 0 0-.378-.48 10.443 10.443 0 0 0-2.308-.273z" style="fill:#7dcdf9" transform="translate(-1729.131 -723.418)"/>
                <path data-name="패스 30626" d="M1740.131 733.454a10.424 10.424 0 0 0-2.308.273.492.492 0 0 0-.378.479v1.644h5.373v-1.643a.492.492 0 0 0-.378-.48 10.433 10.433 0 0 0-2.309-.273z" style="fill:#7dcdf9" transform="translate(-1729.131 -723.418)"/>
                <path data-name="패스 30627" d="M1745.5 733.454a10.424 10.424 0 0 0-2.308.273.492.492 0 0 0-.378.479v1.644h5.374v-1.643a.493.493 0 0 0-.379-.48 10.424 10.424 0 0 0-2.309-.273z" style="fill:#7dcdf9" transform="translate(-1729.131 -723.418)"/>
            </g>
            <g data-name="그룹 12802">
                <path data-name="패스 30628" d="m1734.472 730.827-.06-.06a.215.215 0 0 1 0-.3l.06-.059a.215.215 0 1 0-.3-.3l-.06.06a.214.214 0 0 1-.3 0l-.06-.06a.215.215 0 0 0-.3.3l.06.059a.217.217 0 0 1 0 .3l-.06.06a.214.214 0 0 0 .3.3l.06-.06a.214.214 0 0 1 .3 0l.06.06a.215.215 0 0 0 .3-.3z" style="fill:#165e9e" transform="translate(-1729.131 -723.418)"/>
                <path data-name="패스 30629" d="m1738.588 730.827-.06-.06a.215.215 0 0 1 0-.3l.06-.059a.215.215 0 1 0-.3-.3l-.06.06a.214.214 0 0 1-.3 0l-.06-.06a.215.215 0 0 0-.3.3l.06.059a.217.217 0 0 1 0 .3l-.06.06a.214.214 0 0 0 .3.3l.06-.06a.214.214 0 0 1 .3 0l.06.06a.215.215 0 1 0 .3-.3z" style="fill:#165e9e" transform="translate(-1729.131 -723.418)"/>
                <path data-name="패스 30630" d="m1742.7 730.827-.06-.06a.215.215 0 0 1 0-.3l.06-.059a.215.215 0 1 0-.3-.3l-.059.06a.215.215 0 0 1-.3 0l-.06-.06a.215.215 0 0 0-.3.3l.06.059a.215.215 0 0 1 0 .3l-.06.06a.214.214 0 0 0 .3.3l.06-.06a.215.215 0 0 1 .3 0l.059.06a.215.215 0 1 0 .3-.3z" style="fill:#165e9e" transform="translate(-1729.131 -723.418)"/>
                <path data-name="패스 30631" d="m1746.82 730.827-.06-.06a.215.215 0 0 1 0-.3l.06-.059a.215.215 0 1 0-.3-.3l-.06.06a.215.215 0 0 1-.3 0l-.06-.06a.215.215 0 0 0-.3.3l.06.059a.215.215 0 0 1 0 .3l-.06.06a.214.214 0 0 0 .3.3l.06-.06a.215.215 0 0 1 .3 0l.06.06a.214.214 0 0 0 .3-.3z" style="fill:#165e9e" transform="translate(-1729.131 -723.418)"/>
            </g>
            <path data-name="패스 30632" d="M1750.468 732.968h-1.1a.421.421 0 0 0-.378.235l-1.089 2.2h-15.53l-1.116-2.206a.423.423 0 0 0-.376-.231h-1.08a.809.809 0 0 0-.619 1.107l.54 3.643a2.567 2.567 0 0 0 2.539 2.19h15.753a2.566 2.566 0 0 0 2.539-2.19l.54-3.643a.809.809 0 0 0-.623-1.105z" style="fill:#56a6e8" transform="translate(-1729.131 -723.418)"/>
        </g>
    </g>
</svg>
