<svg xmlns="http://www.w3.org/2000/svg" width="22" height="22" viewBox="0 0 22 22">
    <g data-name="icon_party/ 22">
        <path data-name="사각형 5935" style="fill:none" d="M0 0h22v22H0z"/>
        <g data-name="그룹 12914" transform="translate(-2010.187 -946.218)">
            <path data-name="사각형 6043" d="M2.186 0h.629A2.186 2.186 0 0 1 5 2.186v.387a.363.363 0 0 1-.363.363H.363A.363.363 0 0 1 0 2.573v-.387A2.186 2.186 0 0 1 2.186 0z" transform="translate(2017.47 949.217)" style="fill:#dbdbfc"/>
            <rect data-name="사각형 6044" width="1.448" height="5.119" rx=".633" transform="translate(2019.247 946.218)" style="fill:#dbdbfc"/>
            <path data-name="패스 30841" d="M2023.7 963.059c-.685 2.735-2.1 4.614-3.732 4.614a8.346 8.346 0 0 0 8.346-8.346c.003 1.634-1.876 3.047-4.614 3.732z" style="fill:#d1d0f4"/>
            <path data-name="패스 30842" d="M2016.239 955.595c.685-2.735 2.1-4.614 3.732-4.614a8.347 8.347 0 0 0-8.346 8.346c0-1.633 1.875-3.047 4.614-3.732z" style="fill:#d0d0f4"/>
            <path data-name="패스 30843" d="M2016.239 963.059c-2.735-.685-4.614-2.1-4.614-3.732a8.346 8.346 0 0 0 8.346 8.346c-1.634 0-3.047-1.879-3.732-4.614z" style="fill:#dce2fe"/>
            <path data-name="패스 30844" d="M2019.971 950.981c1.633 0 3.047 1.879 3.732 4.614 2.735.685 4.614 2.1 4.614 3.732a8.347 8.347 0 0 0-8.346-8.346z" style="fill:#c1c1f4"/>
            <path data-name="패스 30845" d="M2016.239 955.595c-2.735.685-4.614 2.1-4.614 3.732h4.173a15.434 15.434 0 0 1 .441-3.732z" style="fill:#dce2fe"/>
            <path data-name="패스 30846" d="M2016.239 963.059a15.434 15.434 0 0 1-.441-3.732h-4.173c0 1.634 1.875 3.047 4.614 3.732z" style="fill:#d0d0f4"/>
            <path data-name="패스 30847" d="M2023.7 955.595a15.483 15.483 0 0 1 .441 3.732h4.173c.003-1.633-1.876-3.047-4.614-3.732z" style="fill:#d1d0f4"/>
            <path data-name="패스 30848" d="M2023.7 963.059c2.735-.685 4.614-2.1 4.614-3.732h-4.173a15.483 15.483 0 0 1-.441 3.732z" style="fill:#c1c1f4"/>
            <path data-name="패스 30849" d="M2023.7 955.595c-.685-2.735-2.1-4.614-3.732-4.614v4.173a15.486 15.486 0 0 1 3.732.441z" style="fill:#bed4f9"/>
            <path data-name="패스 30850" d="M2016.239 955.595a15.486 15.486 0 0 1 3.732-.441v-4.173c-1.634 0-3.047 1.879-3.732 4.614z" style="fill:#e6e6fe"/>
            <path data-name="패스 30851" d="M2016.239 963.059c.685 2.735 2.1 4.614 3.732 4.614V963.5a15.434 15.434 0 0 1-3.732-.441z" style="fill:#e6f2fe"/>
            <path data-name="패스 30852" d="M2023.7 963.059a15.434 15.434 0 0 1-3.732.441v4.173c1.632 0 3.05-1.879 3.732-4.614z" style="fill:#dbdbfc"/>
            <path data-name="패스 30853" d="M2015.8 959.327a15.434 15.434 0 0 0 .441 3.732 15.434 15.434 0 0 0 3.732.441v-4.173z" style="fill:#e6e6fe"/>
            <path data-name="패스 30854" d="M2019.971 955.154a15.486 15.486 0 0 0-3.732.441 15.434 15.434 0 0 0-.441 3.732h4.173z" style="fill:#e6f2fe"/>
            <path data-name="패스 30855" d="M2019.971 959.327h4.173a15.483 15.483 0 0 0-.441-3.732 15.486 15.486 0 0 0-3.732-.441z" style="fill:#dbdbfc"/>
            <path data-name="패스 30856" d="M2019.971 963.5a15.434 15.434 0 0 0 3.732-.441 15.483 15.483 0 0 0 .441-3.732h-4.173z" style="fill:#bed4f9"/>
            <path data-name="패스 30857" d="m2013.531 947.091.463.86a1.838 1.838 0 0 0 .749.749l.86.463a.12.12 0 0 1 0 .21l-.86.463a1.838 1.838 0 0 0-.749.749l-.463.86a.12.12 0 0 1-.21 0l-.463-.86a1.838 1.838 0 0 0-.749-.749l-.86-.463a.12.12 0 0 1 0-.21l.86-.463a1.838 1.838 0 0 0 .749-.749l.463-.86a.12.12 0 0 1 .21 0z" style="fill:#977bff"/>
            <path data-name="패스 30858" d="m2029.536 963.8.463.86a1.849 1.849 0 0 0 .75.75l.859.462a.119.119 0 0 1 0 .21l-.859.463a1.847 1.847 0 0 0-.75.749l-.463.86a.119.119 0 0 1-.21 0l-.462-.86a1.847 1.847 0 0 0-.75-.749l-.859-.463a.119.119 0 0 1 0-.21l.859-.462a1.849 1.849 0 0 0 .75-.75l.462-.86a.12.12 0 0 1 .21 0z" style="fill:#6aa0ff"/>
        </g>
    </g>
</svg>
