<svg xmlns="http://www.w3.org/2000/svg" width="22" height="22" viewBox="0 0 22 22">
    <g data-name="icon_pet/ 22">
        <path data-name="사각형 5935" style="fill:none" d="M0 0h22v22H0z"/>
        <g data-name="그룹 12933">
            <g data-name="그룹 12929">
                <g data-name="그룹 12927">
                    <path data-name="패스 30872" d="M1797.908 874.094a.36.36 0 0 1 .237-.139.354.354 0 0 1 .265.069 4.143 4.143 0 0 1 1.387 3.156 8.863 8.863 0 0 0-3.392 2.362 7.493 7.493 0 0 0-2.171 6.039 2.867 2.867 0 0 1-.885-.441l-2.4-1.808z" style="fill:#e28424" transform="translate(-1777.814 -872.951)"/>
                    <path data-name="패스 30873" d="M1796.405 879.542a8.863 8.863 0 0 1 3.392-2.362 11.159 11.159 0 0 1-1.886 6.7l-.523.7a2.847 2.847 0 0 1-3.154 1.009 7.493 7.493 0 0 1 2.171-6.047z" style="fill:#fbe2da" transform="translate(-1777.814 -872.951)"/>
                </g>
                <g data-name="그룹 12928">
                    <path data-name="패스 30874" d="M1779.72 874.094a.358.358 0 0 0-.5-.07 4.146 4.146 0 0 0-1.387 3.156 8.865 8.865 0 0 1 3.392 2.362 7.5 7.5 0 0 1 2.172 6.039 2.874 2.874 0 0 0 .884-.441l2.4-1.808z" style="fill:#e28424" transform="translate(-1777.814 -872.951)"/>
                    <path data-name="패스 30875" d="M1781.223 879.542a8.865 8.865 0 0 0-3.392-2.362 11.166 11.166 0 0 0 1.886 6.7l.524.7a2.847 2.847 0 0 0 3.154 1.009 7.5 7.5 0 0 0-2.172-6.047z" style="fill:#fbe2da" transform="translate(-1777.814 -872.951)"/>
                </g>
            </g>
            <g data-name="그룹 12932">
                <path data-name="패스 30876" d="M1793.542 893.679h-9.456a3.982 3.982 0 0 1-3.8-4.69l.76-4.9a6.217 6.217 0 0 1 6.04-5.392h3.45a6.216 6.216 0 0 1 6.04 5.392l.761 4.9a3.983 3.983 0 0 1-3.795 4.69z" style="fill:#e28424" transform="translate(-1777.814 -872.951)"/>
                <path data-name="패스 30877" d="M1790.537 890.026a1.722 1.722 0 0 1-3.445 0l1.692-1.693z" style="fill:#dd6938" transform="translate(-1777.814 -872.951)"/>
                <path data-name="패스 30878" d="M1787.9 884.414c-.733 6.117 2.567 6.117 1.834 0a21.21 21.21 0 0 1-.144-5.718h-1.545a21.236 21.236 0 0 1-.145 5.718z" style="fill:#fff" transform="translate(-1777.814 -872.951)"/>
                <g data-name="그룹 12930" transform="translate(-1777.814 -872.951)">
                    <ellipse data-name="타원 759" cx="2.216" cy="1.948" rx="2.216" ry="1.948" transform="rotate(-69.616 1532.313 -838.723)" style="fill:#fff"/>
                    <ellipse data-name="타원 760" cx="1.948" cy="2.216" rx="1.948" ry="2.216" transform="rotate(-20.384 3360.593 -4528.139)" style="fill:#fff"/>
                </g>
                <path data-name="패스 30879" d="M1789.3 885.311h-.973a1.264 1.264 0 0 0-.927 2.124l.487.524a1.264 1.264 0 0 0 1.853 0l.486-.524a1.264 1.264 0 0 0-.926-2.124z" style="fill:#454045" transform="translate(-1777.814 -872.951)"/>
                <g data-name="그룹 12931">
                    <path data-name="패스 30880" d="M1785.257 883.436h-.079a.7.7 0 0 0-.693.693v.811a.7.7 0 0 0 .693.693h.079a.7.7 0 0 0 .693-.693v-.811a.7.7 0 0 0-.693-.693z" style="fill:#454045" transform="translate(-1777.814 -872.951)"/>
                    <path data-name="패스 30881" d="M1792.451 883.436h-.08a.694.694 0 0 0-.692.693v.811a.694.694 0 0 0 .692.693h.08a.694.694 0 0 0 .692-.693v-.811a.694.694 0 0 0-.692-.693z" style="fill:#454045" transform="translate(-1777.814 -872.951)"/>
                </g>
            </g>
        </g>
    </g>
</svg>
