<svg xmlns="http://www.w3.org/2000/svg" width="22" height="22" viewBox="0 0 22 22">
    <g data-name="icon_baby chair/ 22">
        <path data-name="사각형 6000" style="fill:none" d="M0 0h22v22H0z"/>
        <g data-name="그룹 12886">
            <path data-name="패스 30764" d="M1684.644 780.2h-2.41a5.533 5.533 0 0 0-5.533 5.533v3.324h13.477v-3.324a5.534 5.534 0 0 0-5.534-5.533zm0 1.541a.316.316 0 0 1-.316.317h-1.771a.317.317 0 0 1-.317-.317v-.073a.764.764 0 0 1 .764-.764h.876a.764.764 0 0 1 .764.764z" style="fill:#ff66a1" transform="translate(-1672.54 -780.202)"/>
            <path data-name="패스 30765" d="M1682.133 789.768h2.613l-.184 3.355h-2.245z" style="fill:#ffc200" transform="translate(-1672.54 -780.202)"/>
            <g data-name="그룹 12885">
                <path data-name="패스 30766" d="m1677.962 801.912.891-6.676h-2.432l-.878 6.588a.334.334 0 0 0 .331.378h1.758a.333.333 0 0 0 .33-.29z" style="fill:#c9c9c9" transform="translate(-1672.54 -780.202)"/>
                <g data-name="그룹 12884">
                    <path data-name="패스 30767" d="m1691.336 801.824-.879-6.588h-2.431l.89 6.676a.334.334 0 0 0 .331.29h1.758a.334.334 0 0 0 .331-.378z" style="fill:#c9c9c9" transform="translate(-1672.54 -780.202)"/>
                </g>
            </g>
            <path data-name="패스 30768" d="m1687.842 795.343.083.622a.336.336 0 0 0 .333.292h2.147a.336.336 0 0 0 .333-.381l-.878-6.585h-2.495l.317 2.646a.952.952 0 0 1-.945 1.066h-6.6a.953.953 0 0 1-.945-1.066l.317-2.646h-2.494l-.879 6.585a.337.337 0 0 0 .334.381h2.147a.336.336 0 0 0 .333-.292l.083-.623a.59.59 0 0 1 .584-.511h7.637a.59.59 0 0 1 .588.512z" style="fill:#ff66a1" transform="translate(-1672.54 -780.202)"/>
            <path data-name="사각형 6027" d="M.338 0H14.9a.338.338 0 0 1 .338.338v.2a1.58 1.58 0 0 1-1.58 1.58H1.58A1.58 1.58 0 0 1 0 .54v-.2A.338.338 0 0 1 .338 0z" transform="translate(3.282 7.844)" style="fill:#ffc0da"/>
        </g>
    </g>
</svg>
