<svg xmlns="http://www.w3.org/2000/svg" width="22" height="22" viewBox="0 0 22 22">
    <g data-name="icon_parking/ 22">
        <g data-name="그룹 12814">
            <path data-name="사각형 5935" style="fill:none" d="M0 0h22v22H0z"/>
            <g data-name="그룹 12813" transform="translate(-1505.689 -726.435)">
                <rect data-name="사각형 5959" width="20" height="20" rx="5" transform="translate(1506.689 727.435)" style="fill:#0076de"/>
                <path data-name="패스 30648" d="M1520.25 732.934a4.378 4.378 0 0 0-3-.981h-3.836a.411.411 0 0 0-.411.411V742.5a.411.411 0 0 0 .411.412h1.739a.412.412 0 0 0 .412-.412v-3.21a.188.188 0 0 1 .189-.189h1.5a4.4 4.4 0 0 0 3-.973 3.583 3.583 0 0 0 0-5.2zm-1.439 2.617a1.484 1.484 0 0 1-.392 1.067 1.532 1.532 0 0 1-1.171.408h-1.508a.177.177 0 0 1-.177-.177v-2.641a.177.177 0 0 1 .177-.177h1.508a1.5 1.5 0 0 1 1.171.421 1.554 1.554 0 0 1 .392 1.099z" style="fill:#fff"/>
            </g>
        </g>
    </g>
</svg>
