<svg xmlns="http://www.w3.org/2000/svg" width="22" height="22" viewBox="0 0 22 22">
    <g data-name="icon_charge/ 22">
        <g data-name="그룹 12817">
            <path data-name="사각형 5935" style="fill:none" d="M0 0h22v22H0z"/>
            <g data-name="그룹 12815">
                <path data-name="패스 30649" d="M1811.848 741.508a3.387 3.387 0 0 0 3.118-2.526c.09-.361.113-.737.171-1.133h.224a1.446 1.446 0 0 0 1.428-1.431q.03-1.544 0-3.088a1.449 1.449 0 0 0-1.441-1.44h-.241c-.018-.249-.02-.47-.052-.686a3.736 3.736 0 0 0-.148-.662 3.4 3.4 0 0 0-3.306-2.315c-2.463 0-10.087 0-14.164.007a2.638 2.638 0 0 0-2.634 2.639v8a2.638 2.638 0 0 0 2.638 2.639c4.771 0 14.343-.001 14.407-.004z" style="fill:#39d100" transform="translate(-1794.804 -723.226)"/>
                <path data-name="패스 30650" d="M1804.489 735.578h-1.649a.83.83 0 0 1-.9-.734 1.074 1.074 0 0 1 .123-.587c.608-1.114 1.234-2.218 1.86-3.322a.251.251 0 0 1 .169-.121c.957-.007 1.915-.005 2.919-.005l-1.547 2.5c.084.007.142.015.2.015h1.661a.638.638 0 0 1 .505 1.109q-1.943 2.219-3.883 4.44a.414.414 0 0 1-.2.152.558.558 0 0 1-.353-.033c-.052-.032-.055-.209-.023-.3.338-.963.688-1.921 1.034-2.881.034-.069.053-.136.084-.233z" style="fill:#efefef" transform="translate(-1794.804 -723.226)"/>
            </g>
        </g>
    </g>
</svg>
