<svg xmlns="http://www.w3.org/2000/svg" width="22" height="22" viewBox="0 0 22 22">
    <g data-name="icon_terrace/ 22">
        <path data-name="사각형 5935" style="fill:none" d="M0 0h22v22H0z"/>
        <g data-name="그룹 12925">
            <path data-name="패스 30866" d="M1814.5 957.4v-14.11h-2v14.11a.377.377 0 0 0 .408.335h1.183a.378.378 0 0 0 .409-.335z" style="fill:#dcdcdc" transform="translate(-1811.562 -936.265)"/>
            <path data-name="패스 30867" d="M1818.495 953.667V943.29h-2v10.377a.377.377 0 0 0 .409.334h1.182a.377.377 0 0 0 .409-.334z" style="fill:#dcdcdc" transform="translate(-1811.562 -936.265)"/>
            <path data-name="패스 30868" d="M1828.628 953.667V943.29h-2v10.377a.377.377 0 0 0 .409.334h1.183a.377.377 0 0 0 .408-.334z" style="fill:#dcdcdc" transform="translate(-1811.562 -936.265)"/>
            <path data-name="패스 30869" d="M1832.624 957.4v-14.11h-2v14.11a.377.377 0 0 0 .409.335h1.183a.377.377 0 0 0 .408-.335z" style="fill:#dcdcdc" transform="translate(-1811.562 -936.265)"/>
            <path data-name="패스 30870" d="m1832.88 943.451-9.919-6.536a.724.724 0 0 0-.8 0l-9.92 6.536a.4.4 0 0 0-.181.336v1.088a2.725 2.725 0 0 0 2.483 2.77 2.626 2.626 0 0 0 2.418-1.313.41.41 0 0 1 .709.02 2.626 2.626 0 0 0 4.53 0 .413.413 0 0 1 .719 0 2.626 2.626 0 0 0 4.53 0 .411.411 0 0 1 .71-.02 2.623 2.623 0 0 0 2.417 1.313 2.727 2.727 0 0 0 2.484-2.77v-1.088a.4.4 0 0 0-.18-.336z" style="fill:#fa0" transform="translate(-1811.562 -936.265)"/>
        </g>
    </g>
</svg>
