<svg xmlns="http://www.w3.org/2000/svg" width="50" height="50" viewBox="0 0 50 50">
    <defs>
        <linearGradient id="icnwndiwba" y1="1" x2=".877" y2="1" gradientUnits="objectBoundingBox">
            <stop offset="0" stop-color="#dedede" stop-opacity=".102"/>
            <stop offset=".527" stop-opacity=".349"/>
            <stop offset="1" stop-color="#dedede" stop-opacity=".102"/>
        </linearGradient>
    </defs>
    <g data-name="icon_address empty/50">
        <path data-name="사각형 5736" style="fill:none" d="M0 0h50v50H0z"/>
        <g data-name="그룹 12452" transform="translate(-155 -353)">
            <path data-name="패스 30382" d="M48.2 37.83H1.8a1.8 1.8 0 0 1-1.7-2.4l5.661-15.19a1.8 1.8 0 0 1 1.7-1.2h35.075a1.8 1.8 0 0 1 1.7 1.2l5.661 15.19a1.8 1.8 0 0 1-1.7 2.4" transform="translate(155 359)" style="fill:#e9e9e9"/>
            <ellipse data-name="타원 732" cx="13" cy="1.5" rx="13" ry="1.5" transform="translate(167 385.016)" style="mix-blend-mode:multiply;isolation:isolate;fill:url(#icnwndiwba)"/>
            <path data-name="패스 30383" d="M25 0a10.523 10.523 0 0 0-10.514 10.513c0 5.4 8.435 14.951 9.4 16.023A1.5 1.5 0 0 0 26 26.65a1.532 1.532 0 0 0 .114-.114c.962-1.072 9.4-10.628 9.4-16.023A10.526 10.526 0 0 0 25 0" transform="translate(154.514 359)" style="fill:#ff601a"/>
            <path data-name="패스 30384" d="M25 6.007a4.505 4.505 0 1 1-4.506 4.506A4.506 4.506 0 0 1 25 6.007" transform="translate(154.506 359)" style="fill:#fafafa"/>
        </g>
    </g>
</svg>
