<svg xmlns="http://www.w3.org/2000/svg" width="16" height="16" viewBox="0 0 16 16">
    <defs>
        <clipPath id="lhwwpow59a">
            <path data-name="사각형 6167" style="fill:none" d="M0 0h16v16H0z"/>
        </clipPath>
    </defs>
    <g data-name="그룹 13137" style="clip-path:url(#lhwwpow59a)">
        <g data-name="그룹 13136">
            <g data-name="그룹 13135" style="clip-path:url(#lhwwpow59a)">
                <path data-name="패스 31015" d="M13.146 1.721c-1.1-1.1-3.4-.575-5.145 1.168l-.019.022c-.007-.011-.012-.011-.019-.022C6.219 1.146 3.916.623 2.818 1.721s-.575 3.4 1.168 5.145a5.075 5.075 0 0 0 3.995 1.7 5.077 5.077 0 0 0 4-1.7c1.743-1.743 2.266-4.047 1.168-5.145" style="fill:#f90"/>
                <path data-name="패스 31016" d="M7.963 2.889C6.22 1.146 3.916.623 2.818 1.721s-.575 3.4 1.168 5.145a5.074 5.074 0 0 0 3.995 1.7V2.91l-.018-.021" style="fill:#fb0"/>
                <path data-name="패스 31017" d="M11.978 6.866c1.743-1.743 2.266-4.047 1.168-5.145S9.745 1.146 8 2.889l-.019.022v5.658a5.072 5.072 0 0 0 4-1.7" style="fill:#f90"/>
                <path data-name="패스 31018" d="M14.787 7.742H1.156V14.2a.652.652 0 0 0 .652.652h12.327a.652.652 0 0 0 .652-.652z" style="fill:#ff4949"/>
                <path data-name="패스 31019" d="M15.274 8.384H.726a.408.408 0 0 1-.408-.408V5.06a.408.408 0 0 1 .408-.408h14.548a.408.408 0 0 1 .408.408v2.916a.408.408 0 0 1-.408.408" style="fill:#ff6c6c"/>
                <path data-name="사각형 6165" transform="translate(6.629 4.652)" style="fill:#ffd400" d="M0 0h2.762v10.202H0z"/>
            </g>
        </g>
    </g>
</svg>
