<svg xmlns="http://www.w3.org/2000/svg" width="43" height="18" viewBox="0 0 43 18">
    <defs>
        <clipPath id="stl6vz5bta">
            <path data-name="사각형 4236" style="fill:none" d="M0 0h42.512v13.089H0z"/>
        </clipPath>
    </defs>
    <g data-name="icon_KAKAO pay">
        <g data-name="그룹 10175">
            <g data-name="그룹 10174" style="clip-path:url(#stl6vz5bta)" transform="translate(0 2.5)">
                <path data-name="패스 24061" d="M6.493 0C2.908 0 0 2.3 0 5.129A5 5 0 0 0 3.013 9.46L2.4 11.743a.189.189 0 0 0 .047.2.18.18 0 0 0 .245.012l2.631-1.777a8.269 8.269 0 0 0 1.169.086c3.586 0 6.493-2.3 6.493-5.129S10.079 0 6.493 0" style="fill-rule:evenodd"/>
                <path data-name="패스 24062" d="M18.458 9.389v3.312h-2.359V.487h1.664l.291.775A3.35 3.35 0 0 1 20.542.229c2.31 0 3.409 1.729 3.393 4.524 0 2.924-1.7 4.8-4.12 4.8a5.167 5.167 0 0 1-1.357-.162m0-6.936v5.286a6.79 6.79 0 0 0 .759.049c1.68 0 2.327-1.18 2.327-3.037 0-1.632-.436-2.617-1.777-2.617a3.068 3.068 0 0 0-1.309.319"/>
                <path data-name="패스 24063" d="M29.072 3.929h1.344v-.291c0-.969-.549-1.422-1.5-1.422a5.908 5.908 0 0 0-2.423.582l-.646-1.583a6.174 6.174 0 0 1 3.269-.986c2.262 0 3.489 1.2 3.489 3.474v5.606h-1.659l-.242-.743a4.459 4.459 0 0 1-2.617.985 2.5 2.5 0 0 1-2.7-2.779c0-1.858 1.293-2.843 3.684-2.843m1.345 3.118V5.431H29.33c-1.212 0-1.826.436-1.826 1.309 0 .662.34.986 1.034.986a3.25 3.25 0 0 0 1.878-.679"/>
                <path data-name="패스 24064" d="M39.75 8.404c-.824 2.2-1.809 3.8-3.247 4.685l-1.455-1.342a8.158 8.158 0 0 0 1.955-2.39L33.869.811l2.342-.63 2 6.931L40.202.147l2.31.646z"/>
            </g>
        </g>
        <path data-name="사각형 4239" style="fill:none" d="M0 0h43v18H0z"/>
    </g>
</svg>
