<svg xmlns="http://www.w3.org/2000/svg" width="46" height="18" viewBox="0 0 46 18">
    <defs>
        <clipPath id="vxa63fm63a">
            <path data-name="사각형 4235" style="fill:none" d="M0 0h44.2v17.373H0z"/>
        </clipPath>
    </defs>
    <g data-name="그룹 10173">
        <g data-name="그룹 10172" style="clip-path:url(#vxa63fm63a)">
            <path data-name="패스 24057" d="M126 21h3.545a4.473 4.473 0 0 1 1.456.213 2.829 2.829 0 0 1 1.024.592 2.378 2.378 0 0 1 .6.9 3.149 3.149 0 0 1 .2 1.129v.289a3.017 3.017 0 0 1-.213 1.136 2.662 2.662 0 0 1-.625.929 2.974 2.974 0 0 1-1.023.633 3.956 3.956 0 0 1-1.422.234h-2.184v3.869H126zm1.363 1.184v3.69h1.955q2.148 0 2.148-1.776v-.248a1.5 1.5 0 0 0-.516-1.26 2.35 2.35 0 0 0-1.48-.406z" transform="translate(-103.662 -17.277)" style="fill:#333"/>
            <path data-name="패스 24058" d="M172.746 41.518a2.714 2.714 0 0 1-1.81-.564 1.928 1.928 0 0 1-.668-1.556v-.372a2.053 2.053 0 0 1 .647-1.57 3 3 0 0 1 2.093-.606h1.914v-.44a1.529 1.529 0 0 0-.365-1.122 1.636 1.636 0 0 0-1.191-.365 2.941 2.941 0 0 0-1.15.207 6.378 6.378 0 0 0-1.012.551l-.661-.991a6.368 6.368 0 0 1 1.239-.668 4.189 4.189 0 0 1 1.6-.282 3.988 3.988 0 0 1 1.157.158 2.6 2.6 0 0 1 .9.468 2.177 2.177 0 0 1 .592.757 2.325 2.325 0 0 1 .213 1.012v5.273h-1.28V40.5h-.014a1.439 1.439 0 0 1-.3.378 2.136 2.136 0 0 1-.406.3 2.814 2.814 0 0 1-.654.255 3.467 3.467 0 0 1-.847.09m2.175-3.539h-1.886a1.668 1.668 0 0 0-1.122.3 1.071 1.071 0 0 0-.337.84v.193a.878.878 0 0 0 .386.8 1.669 1.669 0 0 0 .923.248 2.822 2.822 0 0 0 .86-.117 2.157 2.157 0 0 0 .668-.351 1.194 1.194 0 0 0 .392-.475 1.76 1.76 0 0 0 .117-.7z" transform="translate(-140.084 -27.758)" style="fill:#333"/>
            <path data-name="패스 24059" d="m214 40.532 1.983-6.017h1.4l-3.91 10.644-1.211-.427.977-2.575-2.74-7.642h1.446l2 6.017z" transform="translate(-173.185 -28.396)" style="fill:#333"/>
            <path data-name="사각형 4234" style="fill:#00c73c" d="M0 0h18v18H0z"/>
            <path data-name="패스 24060" d="m30.224 34.522-2.8-4.117v4.117H24.5v-7.953h2.963l2.8 4.116v-4.116h2.921v7.953z" transform="translate(-20.156 -21.859)" style="fill:#fff"/>
        </g>
    </g>
    <path data-name="사각형 4239" style="fill:none" d="M0 0h46v18H0z"/>
</svg>
