<svg xmlns="http://www.w3.org/2000/svg" width="18" height="18" viewBox="0 0 18 18">
    <defs>
        <clipPath id="l7ctz6iz9a">
            <path data-name="사각형 6096" style="fill:none" d="M0 0h16.523v16.855H0z"/>
        </clipPath>
    </defs>
    <g data-name="icon_google/18">
        <path data-name="사각형 6104" style="fill:none" d="M0 0h18v18H0z"/>
        <g data-name="그룹 12489">
            <g data-name="그룹 12478" transform="translate(.499 .812)" style="clip-path:url(#l7ctz6iz9a)">
                <path data-name="패스 30342" d="M5.674.463A8.487 8.487 0 0 0 .9 4.645a8.208 8.208 0 0 0-.734 2.118 8.43 8.43 0 0 0 6.083 9.807 9.005 9.005 0 0 0 4.314.047 7.608 7.608 0 0 0 3.45-1.793 7.687 7.687 0 0 0 2.133-3.5 9.893 9.893 0 0 0 .212-4.474H8.425v3.289h4.592a3.971 3.971 0 0 1-1.69 2.605 4.8 4.8 0 0 1-1.854.731 5.545 5.545 0 0 1-2.011 0 4.917 4.917 0 0 1-1.878-.812 5.221 5.221 0 0 1-1.93-2.586 5.1 5.1 0 0 1 0-3.28A5.19 5.19 0 0 1 4.876 4.81a4.954 4.954 0 0 1 4.988-1.3 4.576 4.576 0 0 1 1.817 1.067c.519-.514 1.033-1.034 1.553-1.548.269-.278.557-.543.821-.831A8.136 8.136 0 0 0 11.342.52 8.439 8.439 0 0 0 5.674.463" transform="translate(0 -.001)" style="fill:#fff"/>
                <path data-name="패스 30343" d="M6.409.463a8.5 8.5 0 0 1 5.677.052 8.182 8.182 0 0 1 2.714 1.68c-.264.283-.547.552-.821.831-.519.514-1.034 1.033-1.553 1.548a4.518 4.518 0 0 0-1.816-1.067A4.955 4.955 0 0 0 5.621 4.8 5.2 5.2 0 0 0 4.4 6.791c-.92-.712-1.841-1.43-2.761-2.143A8.456 8.456 0 0 1 6.409.463" transform="translate(-.736)" style="fill:#e94435"/>
                <path data-name="패스 30344" d="M.166 10.551A8.42 8.42 0 0 1 .9 8.432l2.761 2.143a5.105 5.105 0 0 0 0 3.28C2.738 14.567 1.817 15.284.9 16a8.42 8.42 0 0 1-.731-5.446" transform="translate(0 -3.788)" style="fill:#f8bb15"/>
                <path data-name="패스 30345" d="M15.3 12.434h7.933a9.885 9.885 0 0 1-.213 4.474 7.652 7.652 0 0 1-2.133 3.5c-.892-.693-1.788-1.387-2.676-2.081a3.96 3.96 0 0 0 1.689-2.605h-4.586c-.014-1.091-.009-2.185-.009-3.285" transform="translate(-6.875 -5.586)" style="fill:#547dbe"/>
                <path data-name="패스 30346" d="m1.63 20.429 2.761-2.143a5.2 5.2 0 0 0 1.93 2.586 4.977 4.977 0 0 0 1.878.812 5.545 5.545 0 0 0 2.011 0 4.8 4.8 0 0 0 1.854-.731c.892.693 1.789 1.387 2.676 2.081a7.558 7.558 0 0 1-3.449 1.793 9.013 9.013 0 0 1-4.314-.047 8.427 8.427 0 0 1-3.063-1.543 8.57 8.57 0 0 1-2.284-2.808" transform="translate(-.732 -8.215)" style="fill:#34a751"/>
            </g>
        </g>
    </g>
</svg>
